<svg xmlns="http://www.w3.org/2000/svg" viewBox="0 0 160 60"><linearGradient id="a" gradientUnits="userSpaceOnUse" x1="270.691" y1="398.978" x2="310.668" y2="398.978" gradientTransform="matrix(-1 0 0 -1 324.341 426.15)"><stop offset=".005" stop-color="#AD1400"/><stop offset=".416" stop-color="#AF1500"/><stop offset=".565" stop-color="#B61900"/><stop offset=".67" stop-color="#C12100"/><stop offset=".755" stop-color="#D22B00"/><stop offset=".828" stop-color="#E83800"/><stop offset=".839" stop-color="#EC3B00"/></linearGradient><path fill="url(#a)" d="M44.2 25.7c.8.9 1.5 2 1.9 3.3s.8 2.6.8 4-.3 3-.9 4.6c.9-1.2 1.6-2.5 2.1-3.7.5-1.3.8-2.5.8-3.9 0-1.2-.2-2.4-.6-3.5-.4-1.1-1-2.2-1.7-3.3-.8-1.1-1.6-2.2-2.6-3.3s-1.9-2.1-3-3.2c-1 .9-1.6 1.6-3.2 3.1 1.2.8 2.4 1.8 3.4 2.8 1.2 1 2.1 2.1 3 3.1z"/><linearGradient id="b" gradientUnits="userSpaceOnUse" x1="257.76" y1="387.348" x2="291.087" y2="404.168" gradientTransform="matrix(-1 0 0 -1 324.341 426.15)"><stop offset=".005" stop-color="#AD1400"/><stop offset=".234" stop-color="#B01600"/><stop offset=".412" stop-color="#BA1C00"/><stop offset=".574" stop-color="#CA2600"/><stop offset=".724" stop-color="#E23500"/><stop offset=".778" stop-color="#EC3B00"/></linearGradient><path fill="url(#b)" d="M44.2 25.7c.8.9 1.5 2 1.9 3.3s.8 2.6.8 4-.3 3-.9 4.6c.9-1.2 1.6-2.5 2.1-3.7.5-1.3.8-2.5.8-3.9 0-1.2-.2-2.4-.6-3.5-.4-1.1-1-2.2-1.7-3.3-.8-1.1-1.6-2.2-2.6-3.3s-1.9-2.1-3-3.2c-1 .9-1.6 1.6-3.2 3.1 1.2.8 2.4 1.8 3.4 2.8 1.2 1 2.1 2.1 3 3.1z"/><linearGradient id="c" gradientUnits="userSpaceOnUse" x1="277.093" y1="397.561" x2="286.426" y2="397.561" gradientTransform="matrix(-1 0 0 -1 324.341 426.15)"><stop offset=".222" stop-color="#EC3B00"/><stop offset=".231" stop-color="#ED3D04"/><stop offset=".335" stop-color="#F25028"/><stop offset=".446" stop-color="#F76046"/><stop offset=".561" stop-color="#FA6C5E"/><stop offset=".684" stop-color="#FD746E"/><stop offset=".82" stop-color="#FF7978"/><stop offset=".995" stop-color="#FF7B7B"/></linearGradient><path fill="url(#c)" d="M46.5 36.9c.6-1.6.8-3.1.7-4.5-.1-1.4-.5-2.7-1-3.9-.5-1.2-1.3-2.2-2-3.2-.8-1-1.7-2-2.7-3-1-1-2.1-1.9-3.3-2.7-.1.1-.2.1-.3.2 1.2.8 2.4 1.8 3.4 2.8 1 1 2 2.1 2.8 3.1.8.9 1.5 2 1.9 3.3s.8 2.6.8 4-.3 3-.9 4.6c.3-.2.4-.5.6-.7z"/><linearGradient id="d" gradientUnits="userSpaceOnUse" x1="276.13" y1="411.474" x2="312.484" y2="411.474" gradientTransform="matrix(-1 0 0 -1 324.341 426.15)"><stop offset=".005" stop-color="#AD1400"/><stop offset=".416" stop-color="#AF1500"/><stop offset=".565" stop-color="#B61900"/><stop offset=".67" stop-color="#C12100"/><stop offset=".755" stop-color="#D22B00"/><stop offset=".828" stop-color="#E83800"/><stop offset=".839" stop-color="#EC3B00"/></linearGradient><path fill="url(#d)" d="M24.2 13.4c.8-.7 1.7-1.3 2.7-1.7 1-.5 2.1-.8 3.3-.9s2.4-.1 3.7.3c-.9-.5-1.9-1-2.8-1.3-1-.3-1.9-.5-3-.5-1.2 0-2.3.2-3.4.6-1.1.4-2.2 1-3.3 1.7-1.1.7-2.2 1.5-3.2 2.5-1.1.9-2.1 1.9-3.1 2.9.9 1 1.6 1.7 3.1 3.2.8-1.3 1.8-2.6 2.9-3.7s2.1-2.2 3.1-3.1z"/><linearGradient id="e" gradientUnits="userSpaceOnUse" x1="244.938" y1="411.474" x2="313.959" y2="411.474" gradientTransform="matrix(-1 0 0 -1 324.341 426.15)"><stop offset=".005" stop-color="#AD1400"/><stop offset=".427" stop-color="#AF1500"/><stop offset=".579" stop-color="#B61900"/><stop offset=".688" stop-color="#C12100"/><stop offset=".775" stop-color="#D22B00"/><stop offset=".849" stop-color="#E83800"/><stop offset=".86" stop-color="#EC3B00"/></linearGradient><path fill="url(#e)" d="M24.2 13.4c.8-.7 1.7-1.3 2.7-1.7 1-.5 2.1-.8 3.3-.9s2.4-.1 3.7.3c-.9-.5-1.9-1-2.8-1.3-1-.3-1.9-.5-3-.5-1.2 0-2.3.2-3.4.6-1.1.4-2.2 1-3.3 1.7-1.1.7-2.2 1.5-3.2 2.5-1.1.9-2.1 1.9-3.1 2.9.9 1 1.6 1.7 3.1 3.2.8-1.3 1.8-2.6 2.9-3.7s2.1-2.2 3.1-3.1z"/><linearGradient id="f" gradientUnits="userSpaceOnUse" x1="290.398" y1="410.896" x2="309.33" y2="410.896" gradientTransform="matrix(-1 0 0 -1 324.341 426.15)"><stop offset=".222" stop-color="#EC3B00"/><stop offset=".231" stop-color="#ED3D04"/><stop offset=".335" stop-color="#F25028"/><stop offset=".446" stop-color="#F76046"/><stop offset=".561" stop-color="#FA6C5E"/><stop offset=".684" stop-color="#FD746E"/><stop offset=".82" stop-color="#FF7978"/><stop offset=".995" stop-color="#FF7B7B"/></linearGradient><path fill="url(#f)" d="M24 13.2c-1.1.9-2.2 1.9-3.2 3s-2 2.4-2.9 3.7c-1.4-1.4-2-2.1-2.9-3 .9 1 1.6 1.7 3.1 3.2.8-1.3 1.8-2.6 2.9-3.7s2.2-2.1 3.2-3c.8-.7 1.7-1.3 2.7-1.7 1-.5 2.1-.8 3.3-.9s2.4-.1 3.7.3c-.2-.1-.5-.3-.7-.4-1.8-.4-3.5-.2-5.1.3-1.6.4-2.9 1.2-4.1 2.2z"/><linearGradient id="g" gradientUnits="userSpaceOnUse" x1="273.754" y1="380.841" x2="308.483" y2="380.841" gradientTransform="matrix(-1 0 0 -1 324.341 426.15)"><stop offset=".005" stop-color="#AD1400"/><stop offset=".416" stop-color="#AF1500"/><stop offset=".565" stop-color="#B61900"/><stop offset=".67" stop-color="#C12100"/><stop offset=".755" stop-color="#D22B00"/><stop offset=".828" stop-color="#E83800"/><stop offset=".839" stop-color="#EC3B00"/></linearGradient><path fill="url(#g)" d="M32 46.2c-.9.7-1.9 1.4-3.1 1.8s-2.4.8-3.8.8-2.8-.2-4.3-.7c1.2.8 2.3 1.5 3.5 1.9 1.2.5 2.4.7 3.7.7 1.2 0 2.3-.2 3.4-.6 1.1-.4 2.2-.9 3.2-1.6s2.1-1.5 3.2-2.4c1-.9 2.1-1.8 3.1-2.8-.9-1.1-1.5-1.8-3-3.5-.8 1.3-1.8 2.4-2.8 3.5s-2 2.1-3.1 2.9z"/><linearGradient id="h" gradientUnits="userSpaceOnUse" x1="291.161" y1="389.837" x2="296.5" y2="367.397" gradientTransform="matrix(-1 0 0 -1 324.341 426.15)"><stop offset=".421" stop-color="#EC3B00"/><stop offset=".631" stop-color="#CF2900"/><stop offset=".858" stop-color="#B61A00"/><stop offset=".995" stop-color="#AD1400"/></linearGradient><path fill="url(#h)" d="M32 46.2c-.9.7-1.9 1.4-3.1 1.8s-2.4.8-3.8.8-2.8-.2-4.3-.7c1.2.8 2.3 1.5 3.5 1.9 1.2.5 2.4.7 3.7.7 1.2 0 2.3-.2 3.4-.6 1.1-.4 2.2-.9 3.2-1.6s2.1-1.5 3.2-2.4c1-.9 2.1-1.8 3.1-2.8-.9-1.1-1.5-1.8-3-3.5-.8 1.3-1.8 2.4-2.8 3.5s-2 2.1-3.1 2.9z"/><linearGradient id="i" gradientUnits="userSpaceOnUse" x1="278.99" y1="393.482" x2="319.723" y2="393.482" gradientTransform="matrix(-1 0 0 -1 324.341 426.15)"><stop offset=".005" stop-color="#AD1400"/><stop offset=".416" stop-color="#AF1500"/><stop offset=".565" stop-color="#B61900"/><stop offset=".67" stop-color="#C12100"/><stop offset=".755" stop-color="#D22B00"/><stop offset=".828" stop-color="#E83800"/><stop offset=".839" stop-color="#EC3B00"/></linearGradient><path fill="url(#i)" d="M15.2 43.3c1-1 1.7-1.7 3.3-3.4-.5-.5-1-1-1.5-1.6-1.1-.8-2.1-1.8-3-2.7s-1.7-1.9-2.4-2.9c-.6-.9-1.2-1.9-1.6-3-.4-1.1-.6-2.3-.5-3.6 0-1.3.3-2.6.9-4.1-.9 1.3-1.7 2.6-2.3 3.9s-.7 2.7-.7 4.1c0 1.2.2 2.4.6 3.5.4 1.1 1 2.2 1.7 3.3.7 1.1 1.6 2.2 2.5 3.3 1 1.1 2 2.2 3 3.2z"/><linearGradient id="j" gradientUnits="userSpaceOnUse" x1="274.233" y1="396.7" x2="292.168" y2="393.089" gradientTransform="matrix(-1 0 0 -1 324.341 426.15)"><stop offset=".161" stop-color="#EC3B00"/><stop offset=".229" stop-color="#DF3300"/><stop offset=".382" stop-color="#C92500"/><stop offset=".548" stop-color="#B91C00"/><stop offset=".736" stop-color="#B01600"/><stop offset=".995" stop-color="#AD1400"/></linearGradient><path fill="url(#j)" d="M40.5 30.8c.2 1.7 0 3.2-.4 4.6-.4 1.4-1 2.7-1.8 3.9-.1.2-.2.4-.3.5 1.5 1.7 2.1 2.4 3 3.5.9-.9 1.8-1.9 2.7-2.8s1.6-1.9 2.4-2.9c.6-1.6.9-3.1.9-4.6 0-1.4-.3-2.8-.8-4s-1.2-2.3-1.9-3.3c-.8-1-1.8-2.1-2.8-3.1-1-1-2.2-2-3.4-2.8l-.2.2c-.4.4-.6.6-1.1 1 0 0 .3.4.8 1.3s1.2 2 1.8 3.4c.4 1.5.9 3.2 1.1 5.1z"/><linearGradient id="k" gradientUnits="userSpaceOnUse" x1="292.763" y1="403.314" x2="309.954" y2="441.69" gradientTransform="matrix(-1 0 0 -1 324.341 426.15)"><stop offset=".005" stop-color="#AD1400"/><stop offset=".079" stop-color="#B41800"/><stop offset=".185" stop-color="#C62400"/><stop offset=".309" stop-color="#E43600"/><stop offset=".336" stop-color="#EC3B00"/></linearGradient><path fill="url(#k)" d="M18.3 20.3l.8.8s.4-.3 1.3-.8c.8-.5 2-1.2 3.4-1.8 1.4-.6 3.1-1.1 5-1.3 1.5-.1 2.8 0 4.1.3 1.3.3 2.4.8 3.6 1.4l1.5.9c1.5-1.5 2.2-2.1 3.2-3.1-1.1-1.1-2.3-2.2-3.5-3.2-1.2-1-2.4-1.9-3.6-2.6-1.3-.3-2.5-.4-3.7-.3s-2.3.5-3.3.9c-1 .5-1.9 1.1-2.7 1.7-1.1.9-2.2 1.9-3.2 3s-2 2.4-2.9 3.7c-.1.3-.1.3 0 .4z"/><linearGradient id="l" gradientUnits="userSpaceOnUse" x1="302.858" y1="400.926" x2="318.074" y2="390.812" gradientTransform="matrix(-1 0 0 -1 324.341 426.15)"><stop offset=".005" stop-color="#AD1400"/><stop offset=".21" stop-color="#B01600"/><stop offset=".391" stop-color="#BB1D00"/><stop offset=".563" stop-color="#CD2800"/><stop offset=".728" stop-color="#E63800"/><stop offset=".758" stop-color="#EC3B00"/></linearGradient><path fill="url(#l)" d="M11.7 32.7c.7.9 1.5 1.9 2.4 2.9s1.9 1.9 3 2.7c.6.4 1.2.9 1.8 1.3l1-1s-.3-.4-.9-1.3c-.5-.8-1.2-2-1.8-3.4s-1.1-3.2-1.3-5.1c-.2-1.5 0-2.9.3-4.2.3-1.3.8-2.5 1.4-3.6.2-.3.3-.6.5-.9-1.5-1.6-2.2-2.2-3.1-3.2-.8.8-1.6 1.7-2.4 2.5s-1.5 1.7-2.1 2.6c-.6 1.4-.9 2.8-.9 4.1 0 1.3.2 2.5.5 3.6.4 1.1 1 2.1 1.6 3z"/><linearGradient id="m" gradientUnits="userSpaceOnUse" x1="292.47" y1="375.744" x2="303.012" y2="393.453" gradientTransform="matrix(-1 0 0 -1 324.341 426.15)"><stop offset=".161" stop-color="#EC3B00"/><stop offset=".229" stop-color="#DF3300"/><stop offset=".382" stop-color="#C92500"/><stop offset=".548" stop-color="#B91C00"/><stop offset=".736" stop-color="#B01600"/><stop offset=".995" stop-color="#AD1400"/></linearGradient><path fill="url(#m)" d="M20.9 48.1c1.5.5 2.9.8 4.3.7s2.6-.3 3.8-.8 2.2-1.1 3.1-1.8c1-.8 2.1-1.8 3.1-2.8s2-2.2 2.8-3.5l-.1-.1c-.5-.5-.7-.8-1.2-1.4 0 0-.5.3-1.3.8s-2 1.1-3.5 1.6-3.2.9-5.2 1c-1.6.1-3-.2-4.3-.5-1.3-.4-2.5-1-3.7-1.7-.1.1-.2.2-.3.4-1.6 1.6-2.3 2.3-3.3 3.4.9.9 1.9 1.8 2.8 2.6 1.1.7 2 1.5 3 2.1z"/><linearGradient id="n" gradientUnits="userSpaceOnUse" x1="281.114" y1="387.033" x2="322.221" y2="387.033" gradientTransform="matrix(-1 0 0 -1 324.341 426.15)"><stop offset=".005" stop-color="#AD1400"/><stop offset=".416" stop-color="#AF1500"/><stop offset=".565" stop-color="#B61900"/><stop offset=".67" stop-color="#C12100"/><stop offset=".755" stop-color="#D22B00"/><stop offset=".828" stop-color="#E83800"/><stop offset=".839" stop-color="#EC3B00"/></linearGradient><path fill="url(#n)" d="M17 38.3c.5.6 1 1.1 1.5 1.6.1-.1.2-.2.3-.4-.6-.3-1.2-.7-1.8-1.2z"/><linearGradient id="o" gradientUnits="userSpaceOnUse" x1="310.968" y1="411.636" x2="311.433" y2="375.929" gradientTransform="matrix(-1 0 0 -1 324.341 426.15)"><stop offset=".005" stop-color="#AD1400"/><stop offset=".146" stop-color="#B11700"/><stop offset=".294" stop-color="#BE1E00"/><stop offset=".443" stop-color="#D22B00"/><stop offset=".579" stop-color="#EC3B00"/></linearGradient><path fill="url(#o)" d="M7.4 30c0 1.2.2 2.4.6 3.5.4 1.1 1 2.2 1.7 3.3.7 1.1 1.6 2.2 2.5 3.3.9 1.1 1.9 2.1 3 3.2 1-1 1.7-1.7 3.3-3.4.1-.1.2-.2.3-.4-.6-.4-1.2-.8-1.8-1.3-1.1-.8-2.1-1.8-3-2.7s-1.7-1.9-2.4-2.9c-.6-.9-1.2-1.9-1.6-3-.4-1.1-.6-2.3-.5-3.6 0-1.3.3-2.6.9-4.1-.9 1.3-1.7 2.6-2.3 3.9s-.7 2.8-.7 4.2z"/><linearGradient id="p" gradientUnits="userSpaceOnUse" x1="310.968" y1="411.636" x2="311.433" y2="375.929" gradientTransform="matrix(-1 0 0 -1 324.341 426.15)"><stop offset=".005" stop-color="#AD1400"/><stop offset=".146" stop-color="#B11700"/><stop offset=".294" stop-color="#BE1E00"/><stop offset=".443" stop-color="#D22B00"/><stop offset=".579" stop-color="#EC3B00"/></linearGradient><path fill="url(#p)" d="M7.4 30c0 1.2.2 2.4.6 3.5.4 1.1 1 2.2 1.7 3.3.7 1.1 1.6 2.2 2.5 3.3.9 1.1 1.9 2.1 3 3.2 1-1 1.7-1.7 3.3-3.4.1-.1.2-.2.3-.4-.6-.4-1.2-.8-1.8-1.3-1.1-.8-2.1-1.8-3-2.7s-1.7-1.9-2.4-2.9c-.6-.9-1.2-1.9-1.6-3-.4-1.1-.6-2.3-.5-3.6 0-1.3.3-2.6.9-4.1-.9 1.3-1.7 2.6-2.3 3.9s-.7 2.8-.7 4.2z"/><linearGradient id="q" gradientUnits="userSpaceOnUse" x1="305.472" y1="395.179" x2="315.066" y2="395.179" gradientTransform="matrix(-1 0 0 -1 324.341 426.15)"><stop offset=".005" stop-color="#FF7B7B"/><stop offset=".18" stop-color="#FF7978"/><stop offset=".316" stop-color="#FD746E"/><stop offset=".439" stop-color="#FA6C5E"/><stop offset=".554" stop-color="#F76046"/><stop offset=".665" stop-color="#F25028"/><stop offset=".769" stop-color="#ED3D04"/><stop offset=".778" stop-color="#EC3B00"/></linearGradient><path fill="url(#q)" d="M10.1 22.7c-.5 1.4-.8 2.7-.8 4 0 1.2.2 2.4.6 3.5.4 1.1.9 2.1 1.6 2.9.7.9 1.5 1.9 2.4 2.9.9.9 1.9 1.9 3 2.7.6.4 1.1.8 1.7 1.2l.3-.3c-.6-.4-1.2-.8-1.8-1.3-1.1-.8-2.1-1.8-3-2.7s-1.7-1.9-2.4-2.9c-.6-.9-1.2-1.9-1.6-3-.4-1.1-.6-2.3-.5-3.6 0-1.3.3-2.6.9-4.1-.1.3-.3.5-.4.7z"/><linearGradient id="r" gradientUnits="userSpaceOnUse" x1="255.445" y1="-302.016" x2="264.225" y2="-302.016" gradientTransform="matrix(-.037 -.999 .999 -.037 341.119 292.982)"><stop offset=".222" stop-color="#EC3B00"/><stop offset=".231" stop-color="#ED3D04"/><stop offset=".335" stop-color="#F25028"/><stop offset=".446" stop-color="#F76046"/><stop offset=".561" stop-color="#FA6C5E"/><stop offset=".684" stop-color="#FD746E"/><stop offset=".82" stop-color="#FF7978"/><stop offset=".995" stop-color="#FF7B7B"/></linearGradient><path fill="url(#r)" d="M21.4 48.5c1.6.5 3 .7 4.4.6 1.3-.1 2.5-.4 3.6-.9s2.1-1.2 3-2c1-.8 2-1.8 3.1-2.8 1-1 2-2.1 2.7-3.2-.1-.2-.1-.2-.2-.3-.8 1.3-1.8 2.4-2.8 3.4-1 1-2.1 1.9-3.1 2.8-.8.7-1.8 1.4-2.9 1.9s-2.4.9-3.8.9-2.8-.1-4.5-.7c.3.1.3.1.5.3z"/><linearGradient id="s" gradientUnits="userSpaceOnUse" x1="286.003" y1="384.104" x2="284.081" y2="384.775" gradientTransform="matrix(-1 0 0 -1 324.341 426.15)"><stop offset=".005" stop-color="#FF7B7B"/><stop offset=".18" stop-color="#FF7978"/><stop offset=".316" stop-color="#FD746E"/><stop offset=".439" stop-color="#FA6C5E"/><stop offset=".554" stop-color="#F76046"/><stop offset=".665" stop-color="#F25028"/><stop offset=".769" stop-color="#ED3D04"/><stop offset=".778" stop-color="#EC3B00"/></linearGradient><path fill="url(#s)" d="M40.8 43.5c-.9-1-1.6-1.7-3.1-3.2.1-.2.2-.3.3-.4 1.5 1.7 2.1 2.4 3 3.5"/><linearGradient id="t" gradientUnits="userSpaceOnUse" x1="286.677" y1="407.036" x2="282.784" y2="408.396" gradientTransform="matrix(-1 0 0 -1 324.341 426.15)"><stop offset=".005" stop-color="#FF7B7B"/><stop offset=".18" stop-color="#FF7978"/><stop offset=".316" stop-color="#FD746E"/><stop offset=".439" stop-color="#FA6C5E"/><stop offset=".554" stop-color="#F76046"/><stop offset=".665" stop-color="#F25028"/><stop offset=".769" stop-color="#ED3D04"/><stop offset=".778" stop-color="#EC3B00"/></linearGradient><path fill="url(#t)" d="M41.3 17c-.9 1-1.5 1.6-3 3.1l-.4-.2c1.5-1.5 2.2-2.1 3.2-3.1"/><linearGradient id="u" gradientUnits="userSpaceOnUse" x1="-227.609" y1="482.928" x2="-231.507" y2="484.289" gradientTransform="matrix(-.005 1 -1 -.005 499.211 250.221)"><stop offset=".005" stop-color="#FF7B7B"/><stop offset=".18" stop-color="#FF7978"/><stop offset=".316" stop-color="#FD746E"/><stop offset=".439" stop-color="#FA6C5E"/><stop offset=".554" stop-color="#F76046"/><stop offset=".665" stop-color="#F25028"/><stop offset=".769" stop-color="#ED3D04"/><stop offset=".778" stop-color="#EC3B00"/></linearGradient><path fill="url(#u)" d="M15.2 16.7c.9.9 1.6 1.5 3.1 3l-.2.4c-1.5-1.5-2.1-2.2-3.1-3.2"/><linearGradient id="v" gradientUnits="userSpaceOnUse" x1="-180.85" y1="-37.384" x2="-184.856" y2="-35.985" gradientTransform="matrix(1.086 .023 -.025 1.158 214.533 87.931)"><stop offset=".005" stop-color="#FF7B7B"/><stop offset=".18" stop-color="#FF7978"/><stop offset=".316" stop-color="#FD746E"/><stop offset=".439" stop-color="#FA6C5E"/><stop offset=".554" stop-color="#F76046"/><stop offset=".665" stop-color="#F25028"/><stop offset=".769" stop-color="#ED3D04"/><stop offset=".778" stop-color="#EC3B00"/></linearGradient><path fill="url(#v)" d="M15 43c1-1.1 1.7-1.9 3.4-3.7.2.1.3.2.4.3l-2 2c-.5.5-1 1.1-1.6 1.6"/><path d="M67.4 24.1c2.5 0 4.6 1.3 5.6 3.3l-1 .3c-.8-1.7-2.6-2.7-4.7-2.7-3.4 0-6 2.9-6 6.6 0 3.7 2.8 6.7 6.1 6.7 2.2 0 4.5-1.3 4.9-2.9l.9.3c-.7 2-3.1 3.5-5.7 3.5-3.9 0-7.1-3.4-7.1-7.6s3-7.5 7-7.5zm8.1 7.4c0-4.1 3.1-7.4 7-7.4 4 0 7.1 3.4 7.1 7.5v.4h-13c.3 3.6 2.9 6.3 6.1 6.3 2.2 0 4.2-1.2 5-2.9l.9.2c-.8 2-3.3 3.5-5.9 3.5-4 .1-7.2-3.4-7.2-7.6zm13.1-.3c-.3-3.7-2.8-6.3-6.1-6.3s-5.9 2.7-6 6.3h12.1zm4.3-12.8h.9v17.9c0 1.1.7 1.8 1.8 1.8.4 0 1.1-.1 1.5-.3l.2.8c-.6.2-1.5.4-2.1.4-1.4 0-2.4-1-2.4-2.4V18.4zm5.2 18.5l.5-.6c1.5 1.4 3.1 2.1 5.2 2.1 2.7 0 4.6-1.2 4.6-3.3 0-2-1.7-2.5-4.9-3.2-3.2-.8-4.7-1.2-4.7-3.5 0-2.9 2.4-4.2 5.2-4.2 2.3 0 4.1.9 4.9 2.1l-.6.5c-.8-1.1-2.5-1.7-4.3-1.7-2.3 0-4.2 1-4.2 3.2 0 1.8 1.2 2.2 4 2.8 3.6.8 5.6 1.4 5.6 3.9 0 2.6-2.2 4.2-5.5 4.2-2.3 0-4.3-.8-5.8-2.3zm14.6-16.1v-2.4h1v2.4h-1zm0 18.1V24.3h1v14.6h-1zm5.3-6.3v-8.3h1v8.2c0 3.9 1.3 5.8 3.9 5.8 2.6 0 5.2-1.9 6-4.7v-9.2h1v13c0 .4.2.6.5.6v.9h-.3c-.6 0-1.1-.6-1.1-1.2v-2.4c-1.3 2.4-3.7 3.9-6.3 3.9-3.1 0-4.7-2.3-4.7-6.6zm15.1 4.3l.5-.6c1.5 1.4 3.1 2.1 5.2 2.1 2.7 0 4.6-1.2 4.6-3.3 0-2-1.7-2.5-4.9-3.2-3.2-.8-4.7-1.2-4.7-3.5 0-2.9 2.4-4.2 5.2-4.2 2.3 0 4.1.9 4.9 2.1l-.6.5c-.8-1.1-2.5-1.7-4.3-1.7-2.3 0-4.2 1-4.2 3.2 0 1.8 1.2 2.2 4 2.8 3.6.8 5.6 1.4 5.6 3.9 0 2.6-2.2 4.2-5.5 4.2-2.3 0-4.3-.8-5.8-2.3zm16-18.3c1.1 0 2 .9 2 2s-.9 2-2 2-2-.9-2-2c-.1-1.1.8-2 2-2zm-1.4 2.1c0 .4.1.7.4.9.3.3.6.4 1 .4s.7-.2 1-.4c.2-.2.4-.6.4-.9 0-.4-.2-.7-.4-1-.3-.3-.6-.4-1-.4s-.7.1-1 .4-.4.6-.4 1z" fill="#3C3C3C"/></svg>