<?xml version="1.0" encoding="UTF-8" ?>
<!DOCTYPE svg PUBLIC "-//W3C//DTD SVG 1.1//EN" "http://www.w3.org/Graphics/SVG/1.1/DTD/svg11.dtd">
<svg width="259pt" height="194pt" viewBox="0 0 259 194" version="1.1" xmlns="http://www.w3.org/2000/svg">
<path fill="#040404" d=" M 0.00 0.00 L 49.31 0.00 C 49.83 1.41 49.52 3.29 47.85 3.74 C 42.35 5.72 40.11 13.29 34.16 13.93 C 30.81 16.48 23.55 11.53 25.49 18.19 C 26.35 22.78 27.12 27.42 28.50 31.89 C 29.91 36.20 32.08 40.20 34.05 44.27 C 27.86 45.04 22.51 38.51 15.87 39.98 C 16.24 41.91 17.20 43.70 18.61 45.07 C 21.14 47.58 23.42 50.32 25.35 53.32 C 21.32 52.79 16.00 48.67 13.60 53.65 C 9.78 57.94 16.73 62.30 17.06 66.99 C 14.83 66.31 5.77 65.98 11.14 68.83 C 16.14 73.18 13.72 82.70 19.81 87.05 C 21.26 89.19 25.63 93.60 17.44 91.42 C 8.60 90.63 2.66 97.00 0.00 104.53 L 0.00 0.00 Z" />
<path fill="#1b1b1b" d=" M 49.31 0.00 L 51.98 0.00 C 52.28 1.22 52.68 2.41 52.79 3.67 C 47.26 7.04 46.88 14.37 42.63 19.05 C 39.69 17.56 36.83 15.92 33.79 14.65 L 34.16 13.93 C 40.11 13.29 42.35 5.72 47.85 3.74 C 49.52 3.29 49.83 1.41 49.31 0.00 Z" />
<path fill="#2f2f2f" d=" M 51.98 0.00 L 71.87 0.00 C 71.50 1.15 71.12 2.30 70.92 3.49 C 70.51 5.96 70.23 8.44 70.06 10.94 C 65.05 11.37 64.57 4.38 59.89 4.94 C 60.80 8.12 63.82 10.88 63.30 14.29 C 61.92 13.71 60.52 13.18 59.11 12.66 C 58.61 12.44 57.61 12.00 57.11 11.78 C 54.56 11.35 53.82 9.37 53.68 7.01 C 49.49 8.71 50.42 14.45 47.06 17.09 C 45.28 18.48 47.72 20.54 47.95 22.20 C 46.18 21.15 44.40 20.11 42.63 19.05 C 46.88 14.37 47.26 7.04 52.79 3.67 C 52.68 2.41 52.28 1.22 51.98 0.00 Z" />
<path fill="#d3d3d3" d=" M 71.87 0.00 L 79.78 0.00 C 82.26 2.33 83.66 5.42 85.03 8.46 C 86.30 10.61 88.54 11.98 90.16 13.86 C 91.08 21.55 90.36 29.29 91.16 36.98 C 91.05 38.65 90.45 40.17 89.15 41.28 C 83.44 27.97 82.29 12.21 72.98 0.81 C 75.86 17.12 81.39 32.77 88.49 47.60 C 89.99 52.97 94.40 57.55 93.83 63.39 C 93.18 63.23 91.88 62.92 91.22 62.77 C 89.50 60.94 87.23 58.51 88.14 62.77 C 87.95 63.36 87.56 64.55 87.37 65.14 C 85.84 63.38 84.25 61.67 82.77 59.88 C 81.65 58.06 80.50 56.23 79.78 54.21 C 78.50 47.59 80.70 40.83 79.74 34.28 C 77.13 30.54 74.09 27.08 70.89 23.84 C 72.42 29.50 77.63 33.73 77.08 40.07 C 71.61 37.37 71.30 27.89 66.19 23.83 C 63.85 20.09 61.19 16.56 59.11 12.66 C 60.52 13.18 61.92 13.71 63.30 14.29 C 65.60 15.81 67.82 17.44 70.04 19.07 C 70.08 16.36 70.09 13.65 70.06 10.94 C 71.99 14.61 72.69 18.80 74.82 22.37 C 74.79 16.00 74.23 9.08 70.92 3.49 C 71.12 2.30 71.50 1.15 71.87 0.00 Z" />
<path fill="#1e1e1e" d=" M 79.78 0.00 L 84.82 0.00 C 85.35 1.60 85.87 3.20 86.36 4.80 C 85.93 6.03 85.49 7.25 85.03 8.46 C 83.66 5.42 82.26 2.33 79.78 0.00 Z" />
<path fill="#6b6b6b" d=" M 84.82 0.00 L 92.96 0.00 C 95.82 5.97 98.28 12.21 99.75 18.67 C 97.94 20.22 97.07 22.49 95.86 24.47 C 94.95 21.63 94.19 18.74 93.32 15.88 C 92.58 11.35 89.70 7.78 86.36 4.80 C 85.87 3.20 85.35 1.60 84.82 0.00 Z" />
<path fill="#575757" d=" M 92.96 0.00 L 98.87 0.00 C 100.41 1.36 103.03 8.69 103.34 3.84 C 104.86 8.61 106.93 13.18 108.66 17.87 C 107.95 22.33 108.42 26.79 108.86 31.24 C 107.48 28.76 107.31 25.64 105.14 23.65 C 105.18 29.21 105.95 34.73 106.02 40.29 C 104.66 33.03 101.97 25.84 99.75 18.67 C 98.28 12.21 95.82 5.97 92.96 0.00 Z" />
<path fill="#9c9c9c" d=" M 98.87 0.00 L 102.00 0.00 C 102.49 1.26 102.94 2.54 103.34 3.84 C 103.03 8.69 100.41 1.36 98.87 0.00 Z" />
<path fill="#090909" d=" M 102.00 0.00 L 114.33 0.00 C 113.52 2.66 112.51 5.25 111.64 7.89 C 110.53 9.41 110.63 11.34 111.13 13.07 C 111.15 15.99 111.05 18.92 111.46 21.82 C 110.02 26.91 109.69 19.68 108.66 17.87 C 106.93 13.18 104.86 8.61 103.34 3.84 C 102.94 2.54 102.49 1.26 102.00 0.00 Z" />
<path fill="#b9b9b9" d=" M 114.33 0.00 L 117.18 0.00 C 115.52 10.03 112.40 19.93 113.00 30.23 C 115.34 24.11 116.89 17.40 119.79 11.34 C 122.83 8.30 123.45 4.06 124.18 0.00 L 131.15 0.00 C 129.26 7.45 126.30 14.54 123.73 21.74 C 121.19 31.74 119.83 42.01 119.17 52.30 C 119.05 53.80 119.09 55.30 119.14 56.80 C 119.44 58.94 117.78 59.00 116.14 58.91 C 115.60 56.90 114.77 55.00 114.00 53.07 C 115.38 49.58 112.54 45.89 111.28 42.68 C 110.90 45.03 110.59 47.38 110.35 49.75 C 109.56 52.29 108.72 54.82 107.64 57.25 C 107.42 45.38 114.14 33.86 111.46 21.82 C 111.05 18.92 111.15 15.99 111.13 13.07 C 112.66 11.72 112.36 9.57 111.64 7.89 C 112.51 5.25 113.52 2.66 114.33 0.00 Z" />
<path fill="#919191" d=" M 117.18 0.00 L 123.12 0.00 C 121.68 3.59 118.38 7.33 119.79 11.34 C 116.89 17.40 115.34 24.11 113.00 30.23 C 112.40 19.93 115.52 10.03 117.18 0.00 Z" />
<path fill="#535353" d=" M 123.12 0.00 L 124.18 0.00 C 123.45 4.06 122.83 8.30 119.79 11.34 C 118.38 7.33 121.68 3.59 123.12 0.00 Z" />
<path fill="#7b7b7b" d=" M 131.15 0.00 L 136.74 0.00 C 137.99 3.01 139.23 6.02 140.52 9.01 C 138.90 10.19 136.94 9.67 135.14 9.45 C 135.66 12.54 132.20 17.09 133.79 7.90 C 129.74 9.01 131.13 15.74 129.25 19.01 C 127.82 27.08 124.70 34.87 123.98 43.05 C 126.61 43.69 127.92 41.51 129.15 39.63 C 132.75 43.69 128.34 48.71 128.03 53.16 C 132.17 49.73 131.42 42.33 135.77 39.89 C 136.03 41.51 136.55 44.73 136.80 46.35 C 134.44 51.26 131.46 55.85 128.19 60.19 C 129.54 56.62 128.54 55.41 124.94 56.88 C 125.39 53.47 126.39 50.16 126.93 46.77 C 122.78 50.65 123.67 57.09 122.78 62.21 C 122.10 60.03 121.40 57.81 119.14 56.80 C 119.09 55.30 119.05 53.80 119.17 52.30 C 122.96 47.57 121.25 40.84 123.46 35.40 C 125.30 31.07 125.67 26.09 123.73 21.74 C 126.30 14.54 129.26 7.45 131.15 0.00 Z" />
<path fill="#b6b6b6" d=" M 136.74 0.00 L 144.06 0.00 C 143.61 3.05 143.09 6.09 142.87 9.17 C 148.02 19.23 142.04 29.86 137.97 39.24 C 137.14 33.83 143.69 27.14 139.36 22.91 C 138.06 28.59 136.56 34.51 133.00 39.24 C 134.12 31.15 135.54 23.07 137.25 15.07 C 139.45 14.46 141.29 15.89 143.10 16.88 C 142.42 14.20 141.71 11.51 140.52 9.01 C 139.23 6.02 137.99 3.01 136.74 0.00 Z" />
<path fill="#838383" d=" M 144.06 0.00 L 154.78 0.00 C 155.03 1.76 155.32 3.51 155.69 5.25 C 155.25 8.41 151.68 9.89 151.80 13.21 C 150.24 11.32 152.90 4.74 149.19 5.01 C 149.14 8.87 148.61 12.72 147.39 16.38 C 148.76 11.25 147.25 8.77 142.87 9.17 C 143.09 6.09 143.61 3.05 144.06 0.00 Z" />
<path fill="#191919" d=" M 154.78 0.00 L 158.10 0.00 C 158.12 0.39 158.18 1.17 158.21 1.56 C 157.35 2.77 156.50 4.00 155.69 5.25 C 155.32 3.51 155.03 1.76 154.78 0.00 Z" />
<path fill="#acacac" d=" M 158.10 0.00 L 161.77 0.00 C 161.97 5.93 158.19 10.82 156.03 16.10 C 154.67 10.90 158.71 6.58 158.21 1.56 C 158.18 1.17 158.12 0.39 158.10 0.00 Z" />
<path fill="#8b8b8b" d=" M 161.77 0.00 L 168.34 0.00 C 161.61 9.17 155.92 19.14 151.81 29.76 C 151.49 29.56 150.87 29.16 150.56 28.96 C 152.30 24.64 153.99 20.29 156.03 16.10 C 158.19 10.82 161.97 5.93 161.77 0.00 Z" />
<path fill="#c4c4c4" d=" M 168.34 0.00 L 171.41 0.00 C 166.55 9.56 159.68 17.97 155.10 27.72 C 153.19 30.94 151.68 34.37 150.04 37.73 C 149.37 38.54 148.68 39.34 147.99 40.13 C 148.60 36.36 149.16 32.53 150.56 28.96 C 150.87 29.16 151.49 29.56 151.81 29.76 C 155.92 19.14 161.61 9.17 168.34 0.00 Z" />
<path fill="#9a9a9a" d=" M 171.41 0.00 L 180.06 0.00 C 180.27 0.59 180.70 1.78 180.91 2.37 C 177.28 5.13 177.51 11.19 173.13 13.10 C 166.91 11.77 157.79 20.42 165.21 25.11 C 163.18 27.76 159.43 35.55 165.25 31.12 C 162.23 36.60 159.16 42.36 154.00 46.13 C 154.26 40.50 163.81 30.83 155.10 27.72 C 159.68 17.97 166.55 9.56 171.41 0.00 Z" />
<path fill="#212121" d=" M 180.06 0.00 L 182.99 0.00 C 182.74 1.17 182.05 1.96 180.91 2.37 C 180.70 1.78 180.27 0.59 180.06 0.00 Z" />
<path fill="#cccccc" d=" M 182.99 0.00 L 190.33 0.00 C 184.11 5.95 178.55 12.53 173.35 19.37 C 170.90 22.60 174.03 27.16 171.30 30.30 C 164.23 36.87 159.45 45.55 152.72 52.52 C 152.23 52.36 151.25 52.06 150.76 51.91 C 150.84 51.48 151.00 50.62 151.08 50.20 C 152.03 48.82 153.01 47.48 154.00 46.13 C 159.16 42.36 162.23 36.60 165.25 31.12 C 159.43 35.55 163.18 27.76 165.21 25.11 C 170.07 22.51 170.52 17.25 173.13 13.10 C 177.51 11.19 177.28 5.13 180.91 2.37 C 182.05 1.96 182.74 1.17 182.99 0.00 Z" />
<path fill="#b6b6b6" d=" M 190.33 0.00 L 192.43 0.00 C 189.37 6.14 184.60 11.18 180.94 16.92 C 181.70 17.00 183.21 17.16 183.97 17.24 C 178.73 18.28 175.89 24.82 180.95 28.13 C 176.59 32.19 171.85 35.95 168.23 40.72 C 165.36 44.00 161.94 46.71 158.85 49.77 C 157.37 51.31 155.67 52.61 153.91 53.80 C 150.75 55.94 147.58 58.41 149.85 52.86 C 150.08 52.62 150.53 52.14 150.76 51.91 C 151.25 52.06 152.23 52.36 152.72 52.52 C 159.45 45.55 164.23 36.87 171.30 30.30 C 174.03 27.16 170.90 22.60 173.35 19.37 C 178.55 12.53 184.11 5.95 190.33 0.00 Z" />
<path fill="#d9d9d9" d=" M 192.43 0.00 L 193.38 0.00 C 191.48 6.14 187.90 11.48 184.67 16.95 L 183.97 17.24 C 183.21 17.16 181.70 17.00 180.94 16.92 C 184.60 11.18 189.37 6.14 192.43 0.00 Z" />
<path fill="#b4b4b4" d=" M 193.38 0.00 L 196.00 0.00 C 196.06 1.75 196.19 5.24 196.26 6.99 C 195.89 8.71 195.49 10.42 195.12 12.14 C 194.79 12.36 194.13 12.78 193.80 13.00 C 190.74 14.29 187.69 15.59 184.67 16.95 C 187.90 11.48 191.48 6.14 193.38 0.00 Z" />
<path fill="#696969" d=" M 196.00 0.00 L 196.75 0.00 C 198.02 2.19 197.85 4.52 196.26 6.99 C 196.19 5.24 196.06 1.75 196.00 0.00 Z" />
<path fill="#050505" d=" M 196.75 0.00 L 259.00 0.00 L 259.00 194.00 L 215.89 194.00 C 215.91 191.56 215.64 188.63 218.82 188.41 C 220.11 184.72 217.82 181.71 216.30 178.68 C 213.93 173.33 210.80 168.33 206.79 164.06 C 207.11 163.75 207.74 163.15 208.05 162.85 C 209.64 163.76 211.25 164.62 212.88 165.47 C 218.10 168.49 223.75 171.38 229.99 171.04 C 234.51 172.12 231.56 165.51 231.45 162.88 C 231.43 161.29 233.14 161.20 234.27 160.76 C 237.92 160.11 241.56 159.25 245.00 157.82 C 243.61 154.29 238.97 153.18 236.13 150.84 C 231.20 147.25 226.10 143.88 220.65 141.12 C 222.36 141.15 224.07 141.14 225.79 141.18 C 230.55 141.67 235.60 142.89 240.30 141.37 C 241.38 141.09 242.43 140.73 243.45 140.29 C 244.77 139.71 246.07 139.07 247.24 138.21 C 247.47 137.93 247.93 137.38 248.17 137.10 C 248.13 134.72 247.15 132.31 245.08 131.00 C 243.87 130.04 242.63 129.12 241.37 128.24 C 239.49 126.79 237.54 125.43 235.73 123.89 C 239.14 120.89 244.28 119.66 246.47 115.41 C 247.32 110.34 238.03 108.31 239.81 104.00 C 240.29 103.96 241.25 103.86 241.73 103.81 C 246.61 103.65 252.62 102.47 254.00 97.06 C 249.44 95.10 245.30 88.38 239.96 89.83 C 239.31 86.81 235.30 86.89 232.95 85.78 C 228.69 84.45 224.29 83.40 219.84 83.05 C 218.30 82.96 216.78 83.18 215.27 83.39 C 213.40 83.09 211.56 82.73 209.73 82.28 C 211.21 81.38 212.77 80.61 214.34 79.86 C 216.60 79.28 218.84 78.64 221.09 78.00 C 223.50 77.33 225.90 76.61 228.30 75.88 C 230.04 75.39 231.71 74.67 233.39 73.99 C 237.99 73.08 241.68 70.13 245.22 67.23 C 238.94 67.75 233.17 65.09 227.15 63.97 C 225.32 63.99 221.66 64.02 219.83 64.03 C 218.13 64.05 216.44 64.12 214.75 64.17 C 209.50 64.48 214.33 61.87 216.20 60.33 C 221.99 56.43 226.74 51.12 230.21 45.08 C 230.42 44.84 230.83 44.37 231.03 44.13 C 233.57 41.74 235.53 38.67 236.01 35.16 C 233.62 33.53 230.46 33.02 227.70 33.93 C 227.09 34.01 225.87 34.19 225.26 34.28 C 223.79 34.13 222.33 33.98 220.87 33.83 C 222.27 31.21 223.00 28.37 222.46 25.40 C 224.98 23.88 231.84 20.74 226.63 18.16 C 220.98 14.45 218.95 22.66 214.59 22.16 C 215.18 20.84 215.83 19.55 216.28 18.17 C 217.14 14.54 218.30 5.31 213.93 11.83 C 210.87 14.84 207.63 17.65 204.15 20.16 C 204.10 16.86 204.16 13.56 203.99 10.26 C 201.13 11.31 198.13 11.83 195.12 12.14 C 195.49 10.42 195.89 8.71 196.26 6.99 C 197.85 4.52 198.02 2.19 196.75 0.00 Z" />
<path fill="#909090" d=" M 72.98 0.81 C 82.29 12.21 83.44 27.97 89.15 41.28 C 90.95 44.89 90.98 53.80 95.20 53.25 L 95.90 52.99 C 95.78 56.06 99.11 64.47 93.83 63.39 C 94.40 57.55 89.99 52.97 88.49 47.60 C 81.39 32.77 75.86 17.12 72.98 0.81 Z" />
<path fill="#dbdbdb" d=" M 155.69 5.25 C 156.50 4.00 157.35 2.77 158.21 1.56 C 158.71 6.58 154.67 10.90 156.03 16.10 C 153.99 20.29 152.30 24.64 150.56 28.96 C 149.16 32.53 148.60 36.36 147.99 40.13 C 146.79 43.14 145.51 46.12 144.09 49.04 C 140.37 52.03 139.19 50.01 139.69 45.74 C 139.90 44.55 140.11 43.35 140.31 42.15 C 141.06 38.34 142.02 34.51 144.01 31.14 C 148.43 27.77 149.20 21.76 151.16 16.87 C 151.51 15.68 151.68 14.45 151.80 13.21 C 151.68 9.89 155.25 8.41 155.69 5.25 Z" />
<path fill="#8c8c8c" d=" M 70.06 10.94 C 70.23 8.44 70.51 5.96 70.92 3.49 C 74.23 9.08 74.79 16.00 74.82 22.37 C 72.69 18.80 71.99 14.61 70.06 10.94 Z" />
<path fill="#5b5b5b" d=" M 59.89 4.94 C 64.57 4.38 65.05 11.37 70.06 10.94 C 70.09 13.65 70.08 16.36 70.04 19.07 C 67.82 17.44 65.60 15.81 63.30 14.29 C 63.82 10.88 60.80 8.12 59.89 4.94 Z" />
<path fill="#8c8c8c" d=" M 86.36 4.80 C 89.70 7.78 92.58 11.35 93.32 15.88 C 92.25 15.22 91.19 14.56 90.16 13.86 C 88.54 11.98 86.30 10.61 85.03 8.46 C 85.49 7.25 85.93 6.03 86.36 4.80 Z" />
<path fill="#9a9a9a" d=" M 149.19 5.01 C 152.90 4.74 150.24 11.32 151.80 13.21 C 151.68 14.45 151.51 15.68 151.16 16.87 C 144.79 18.21 146.05 26.27 144.01 31.14 C 142.02 34.51 141.06 38.34 140.31 42.15 C 139.86 37.15 137.81 44.82 136.80 46.35 C 136.55 44.73 136.03 41.51 135.77 39.89 C 131.42 42.33 132.17 49.73 128.03 53.16 C 128.34 48.71 132.75 43.69 129.15 39.63 C 130.11 32.81 131.86 26.08 131.99 19.17 C 131.31 19.13 129.94 19.05 129.25 19.01 C 131.13 15.74 129.74 9.01 133.79 7.90 C 132.20 17.09 135.66 12.54 135.14 9.45 C 136.94 9.67 138.90 10.19 140.52 9.01 C 141.71 11.51 142.42 14.20 143.10 16.88 C 141.29 15.89 139.45 14.46 137.25 15.07 C 135.54 23.07 134.12 31.15 133.00 39.24 C 136.56 34.51 138.06 28.59 139.36 22.91 C 143.69 27.14 137.14 33.83 137.97 39.24 C 142.04 29.86 148.02 19.23 142.87 9.17 C 147.25 8.77 148.76 11.25 147.39 16.38 C 148.61 12.72 149.14 8.87 149.19 5.01 Z" />
<path fill="#555555" d=" M 47.06 17.09 C 50.42 14.45 49.49 8.71 53.68 7.01 C 53.82 9.37 54.56 11.35 57.11 11.78 C 55.69 11.95 53.74 11.74 54.16 13.79 C 53.24 15.90 49.82 17.81 52.16 20.13 C 51.87 21.86 49.46 23.73 47.95 22.20 C 47.72 20.54 45.28 18.48 47.06 17.09 Z" />
<path fill="#626262" d=" M 111.13 13.07 C 110.63 11.34 110.53 9.41 111.64 7.89 C 112.36 9.57 112.66 11.72 111.13 13.07 Z" />
<path fill="#999999" d=" M 213.93 11.83 C 218.30 5.31 217.14 14.54 216.28 18.17 C 216.19 10.89 213.36 21.52 209.85 22.14 C 210.72 18.48 214.05 15.77 213.93 11.83 Z" />
<path fill="#8f8f8f" d=" M 125.34 10.32 L 126.12 9.99 C 120.42 23.27 116.42 37.35 116.93 51.96 C 115.04 45.78 115.34 35.33 117.60 27.67 C 119.85 21.87 118.88 13.11 125.34 10.32 Z" />
<path fill="#636363" d=" M 195.12 12.14 C 198.13 11.83 201.13 11.31 203.99 10.26 C 204.16 13.56 204.10 16.86 204.15 20.16 C 203.87 20.45 203.29 21.02 203.01 21.31 C 199.99 20.78 203.07 15.68 199.64 20.20 C 202.37 12.98 192.06 19.94 193.80 13.00 C 194.13 12.78 194.79 12.36 195.12 12.14 Z" />
<path fill="#878787" d=" M 54.16 13.79 C 53.74 11.74 55.69 11.95 57.11 11.78 C 57.61 12.00 58.61 12.44 59.11 12.66 C 61.19 16.56 63.85 20.09 66.19 23.83 C 65.67 23.85 64.61 23.89 64.08 23.91 C 62.52 21.16 60.45 18.78 57.91 16.87 C 62.12 26.59 67.38 35.87 72.32 45.25 C 71.63 45.81 70.77 45.85 69.74 45.37 C 65.33 38.37 62.50 30.47 57.56 23.79 C 56.36 20.48 55.25 17.14 54.16 13.79 Z" />
<path fill="#cccccc" d=" M 204.15 20.16 C 207.63 17.65 210.87 14.84 213.93 11.83 C 214.05 15.77 210.72 18.48 209.85 22.14 C 213.36 21.52 216.19 10.89 216.28 18.17 C 215.83 19.55 215.18 20.84 214.59 22.16 C 211.41 27.31 208.34 32.59 204.04 36.90 C 200.74 36.15 196.96 38.98 195.83 42.01 C 198.54 41.29 201.18 40.35 203.81 39.38 C 207.80 37.88 211.59 35.82 215.71 34.67 C 217.89 34.86 220.06 35.11 222.25 35.28 C 217.89 36.98 205.97 39.60 219.08 39.12 C 214.81 43.95 205.56 44.64 199.75 48.85 C 190.02 53.46 180.97 59.43 171.91 65.17 C 172.21 61.47 174.87 58.58 176.03 55.15 C 171.21 52.95 166.94 57.69 163.03 59.89 C 161.56 60.06 160.09 60.18 158.61 60.23 C 159.77 58.87 160.93 57.50 162.04 56.09 C 164.17 53.55 166.41 51.08 168.90 48.87 C 171.97 47.79 174.91 46.20 176.67 43.33 C 180.31 39.57 184.19 36.24 189.12 34.48 C 190.36 33.38 191.28 31.98 192.00 30.50 C 192.25 30.13 192.76 29.40 193.02 29.03 C 196.81 34.23 199.47 23.55 203.01 21.31 C 203.29 21.02 203.87 20.45 204.15 20.16 Z" />
<path fill="#b1b1b1" d=" M 165.21 25.11 C 157.79 20.42 166.91 11.77 173.13 13.10 C 170.52 17.25 170.07 22.51 165.21 25.11 Z" />
<path fill="#888888" d=" M 184.67 16.95 C 187.69 15.59 190.74 14.29 193.80 13.00 C 192.06 19.94 202.37 12.98 199.64 20.20 C 198.04 23.58 195.16 26.03 193.02 29.03 C 192.76 29.40 192.25 30.13 192.00 30.50 C 191.50 27.13 194.03 21.80 189.06 20.37 C 186.25 21.60 185.32 19.30 184.67 16.95 Z" />
<path fill="#5c5c5c" d=" M 25.49 18.19 C 23.55 11.53 30.81 16.48 34.16 13.93 L 33.79 14.65 C 29.05 15.94 36.51 18.83 35.17 21.48 C 33.44 19.90 31.75 18.26 29.84 16.90 C 38.69 33.91 55.37 45.21 68.91 58.25 C 70.88 61.06 72.88 63.85 74.95 66.60 C 74.49 67.78 74.05 68.97 73.63 70.16 C 73.26 69.86 72.52 69.24 72.15 68.94 C 70.54 66.25 68.42 63.94 66.22 61.73 C 64.04 58.63 61.75 55.35 58.16 53.77 C 57.89 53.59 57.34 53.21 57.06 53.02 C 55.23 51.07 53.46 48.99 50.90 47.96 C 46.19 42.79 41.70 37.43 37.03 32.22 C 33.35 26.82 30.38 20.91 26.08 15.97 C 25.93 16.52 25.64 17.63 25.49 18.19 Z" />
<path fill="#ababab" d=" M 54.16 13.79 C 55.25 17.14 56.36 20.48 57.56 23.79 C 56.73 30.07 62.71 34.97 63.10 41.19 C 59.26 39.12 58.10 28.89 52.88 34.25 C 50.87 29.66 54.43 24.43 52.16 20.13 C 49.82 17.81 53.24 15.90 54.16 13.79 Z" />
<path fill="#b6b6b6" d=" M 90.16 13.86 C 91.19 14.56 92.25 15.22 93.32 15.88 C 94.19 18.74 94.95 21.63 95.86 24.47 C 96.62 28.38 97.25 32.32 98.46 36.13 C 99.25 39.04 99.61 42.04 99.45 45.08 C 97.53 39.29 96.06 33.36 93.86 27.67 C 93.88 25.11 94.55 22.25 92.18 20.65 C 91.96 26.10 92.43 31.63 91.16 36.98 C 90.36 29.29 91.08 21.55 90.16 13.86 Z" />
<path fill="#767676" d=" M 35.17 21.48 C 36.51 18.83 29.05 15.94 33.79 14.65 C 36.83 15.92 39.69 17.56 42.63 19.05 C 44.40 20.11 46.18 21.15 47.95 22.20 C 49.46 23.73 51.87 21.86 52.16 20.13 C 54.43 24.43 50.87 29.66 52.88 34.25 L 52.99 35.15 C 47.85 31.81 44.33 23.65 37.74 23.62 C 36.84 22.96 35.97 22.25 35.17 21.48 Z" />
<path fill="#858585" d=" M 26.08 15.97 C 30.38 20.91 33.35 26.82 37.03 32.22 C 34.18 33.54 31.38 31.38 28.50 31.89 C 27.12 27.42 26.35 22.78 25.49 18.19 C 25.64 17.63 25.93 16.52 26.08 15.97 Z" />
<path fill="#8c8c8c" d=" M 29.84 16.90 C 31.75 18.26 33.44 19.90 35.17 21.48 C 35.97 22.25 36.84 22.96 37.74 23.62 C 43.21 29.34 48.48 35.26 53.97 40.96 C 54.33 40.72 55.04 40.25 55.40 40.01 C 58.89 46.81 65.85 51.19 68.91 58.25 C 55.37 45.21 38.69 33.91 29.84 16.90 Z" />
<path fill="#cccccc" d=" M 57.91 16.87 C 60.45 18.78 62.52 21.16 64.08 23.91 C 66.91 30.97 75.24 36.91 72.32 45.25 C 67.38 35.87 62.12 26.59 57.91 16.87 Z" />
<path fill="#b7b7b7" d=" M 144.01 31.14 C 146.05 26.27 144.79 18.21 151.16 16.87 C 149.20 21.76 148.43 27.77 144.01 31.14 Z" />
<path fill="#a3a3a3" d=" M 183.97 17.24 L 184.67 16.95 C 185.32 19.30 186.25 21.60 189.06 20.37 C 194.03 21.80 191.50 27.13 192.00 30.50 C 191.28 31.98 190.36 33.38 189.12 34.48 C 187.05 32.47 184.51 30.36 185.58 26.80 C 179.96 30.92 174.03 35.43 170.97 41.89 C 172.40 42.25 175.24 42.97 176.67 43.33 C 174.91 46.20 171.97 47.79 168.90 48.87 C 168.55 46.17 168.35 43.45 168.23 40.72 C 171.85 35.95 176.59 32.19 180.95 28.13 C 175.89 24.82 178.73 18.28 183.97 17.24 Z" />
<path fill="#808080" d=" M 108.86 31.24 C 108.42 26.79 107.95 22.33 108.66 17.87 C 109.69 19.68 110.02 26.91 111.46 21.82 C 114.14 33.86 107.42 45.38 107.64 57.25 C 107.28 59.82 108.13 64.64 104.79 61.89 C 105.36 59.87 105.59 57.78 105.82 55.70 C 106.01 50.75 106.24 45.78 105.95 40.83 C 104.40 43.82 103.95 47.60 101.89 50.51 C 99.93 45.02 105.98 39.21 102.88 33.39 C 101.55 24.05 97.69 31.36 98.46 36.13 C 97.25 32.32 96.62 28.38 95.86 24.47 C 97.07 22.49 97.94 20.22 99.75 18.67 C 101.97 25.84 104.66 33.03 106.02 40.29 C 105.95 34.73 105.18 29.21 105.14 23.65 C 107.31 25.64 107.48 28.76 108.86 31.24 Z" />
<path fill="#a7a7a7" d=" M 199.64 20.20 C 203.07 15.68 199.99 20.78 203.01 21.31 C 199.47 23.55 196.81 34.23 193.02 29.03 C 195.16 26.03 198.04 23.58 199.64 20.20 Z" />
<path fill="#141414" d=" M 214.59 22.16 C 218.95 22.66 220.98 14.45 226.63 18.16 C 231.84 20.74 224.98 23.88 222.46 25.40 C 223.00 28.37 222.27 31.21 220.87 33.83 C 219.13 34.00 217.39 34.18 215.71 34.67 C 211.59 35.82 207.80 37.88 203.81 39.38 C 203.86 38.55 203.94 37.72 204.04 36.90 C 208.34 32.59 211.41 27.31 214.59 22.16 Z" />
<path fill="#b0b0b0" d=" M 129.25 19.01 C 129.94 19.05 131.31 19.13 131.99 19.17 C 131.86 26.08 130.11 32.81 129.15 39.63 C 127.92 41.51 126.61 43.69 123.98 43.05 C 124.70 34.87 127.82 27.08 129.25 19.01 Z" />
<path fill="#8e8e8e" d=" M 92.18 20.65 C 94.55 22.25 93.88 25.11 93.86 27.67 C 92.03 32.78 94.48 38.13 93.10 43.20 C 92.49 41.11 91.97 39.00 91.16 36.98 C 92.43 31.63 91.96 26.10 92.18 20.65 Z" />
<path fill="#939393" d=" M 119.17 52.30 C 119.83 42.01 121.19 31.74 123.73 21.74 C 125.67 26.09 125.30 31.07 123.46 35.40 C 121.25 40.84 122.96 47.57 119.17 52.30 Z" />
<path fill="#555555" d=" M 37.74 23.62 C 44.33 23.65 47.85 31.81 52.99 35.15 C 53.81 36.76 54.62 38.37 55.40 40.01 C 55.04 40.25 54.33 40.72 53.97 40.96 C 48.48 35.26 43.21 29.34 37.74 23.62 Z" />
<path fill="#d4d4d4" d=" M 63.10 41.19 C 62.71 34.97 56.73 30.07 57.56 23.79 C 62.50 30.47 65.33 38.37 69.74 45.37 C 71.82 48.96 73.73 52.64 75.78 56.25 C 78.02 60.72 80.38 65.13 83.01 69.38 L 83.25 70.08 C 82.93 71.57 82.54 73.03 82.07 74.47 C 79.70 71.85 77.41 69.14 74.95 66.60 C 72.88 63.85 70.88 61.06 68.91 58.25 C 65.85 51.19 58.89 46.81 55.40 40.01 C 54.62 38.37 53.81 36.76 52.99 35.15 L 52.88 34.25 C 58.10 28.89 59.26 39.12 63.10 41.19 Z" />
<path fill="#9e9e9e" d=" M 64.08 23.91 C 64.61 23.89 65.67 23.85 66.19 23.83 C 71.30 27.89 71.61 37.37 77.08 40.07 C 77.63 33.73 72.42 29.50 70.89 23.84 C 74.09 27.08 77.13 30.54 79.74 34.28 C 80.70 40.83 78.50 47.59 79.78 54.21 C 78.42 50.96 77.84 47.18 75.07 44.75 C 74.49 48.79 78.35 52.33 75.78 56.25 C 73.73 52.64 71.82 48.96 69.74 45.37 C 70.77 45.85 71.63 45.81 72.32 45.25 C 75.24 36.91 66.91 30.97 64.08 23.91 Z" />
<path fill="#bababa" d=" M 170.97 41.89 C 174.03 35.43 179.96 30.92 185.58 26.80 C 184.51 30.36 187.05 32.47 189.12 34.48 C 184.19 36.24 180.31 39.57 176.67 43.33 C 175.24 42.97 172.40 42.25 170.97 41.89 Z" />
<path fill="#6c6c6c" d=" M 93.10 43.20 C 94.48 38.13 92.03 32.78 93.86 27.67 C 96.06 33.36 97.53 39.29 99.45 45.08 C 99.97 50.13 99.49 55.44 101.65 60.17 C 101.56 61.31 100.80 62.24 100.28 63.22 C 99.40 58.87 99.31 54.43 98.80 50.04 C 96.38 49.31 95.65 50.75 95.90 52.99 L 95.20 53.25 C 95.16 49.78 94.15 46.47 93.10 43.20 Z" />
<path fill="#7c7c7c" d=" M 155.10 27.72 C 163.81 30.83 154.26 40.50 154.00 46.13 C 153.01 47.48 152.03 48.82 151.08 50.20 C 149.44 46.95 154.50 39.02 150.04 37.73 C 151.68 34.37 153.19 30.94 155.10 27.72 Z" />
<path fill="#999999" d=" M 98.46 36.13 C 97.69 31.36 101.55 24.05 102.88 33.39 C 105.98 39.21 99.93 45.02 101.89 50.51 C 101.96 52.29 102.01 54.06 102.03 55.84 C 101.95 57.29 101.82 58.73 101.65 60.17 C 99.49 55.44 99.97 50.13 99.45 45.08 C 99.61 42.04 99.25 39.04 98.46 36.13 Z" />
<path fill="#a9a9a9" d=" M 28.50 31.89 C 31.38 31.38 34.18 33.54 37.03 32.22 C 41.70 37.43 46.19 42.79 50.90 47.96 C 48.00 45.97 44.95 43.96 41.30 44.65 C 38.72 43.28 36.31 39.11 34.61 44.05 L 34.05 44.27 C 32.08 40.20 29.91 36.20 28.50 31.89 Z" />
<path fill="#696969" d=" M 227.70 33.93 C 230.46 33.02 233.62 33.53 236.01 35.16 C 235.53 38.67 233.57 41.74 231.03 44.13 C 230.58 42.41 234.35 38.38 231.18 39.03 C 233.77 35.78 233.49 33.39 227.70 33.93 Z" />
<path fill="#606060" d=" M 215.71 34.67 C 217.39 34.18 219.13 34.00 220.87 33.83 C 222.33 33.98 223.79 34.13 225.26 34.28 C 224.26 34.62 223.25 34.95 222.25 35.28 C 220.06 35.11 217.89 34.86 215.71 34.67 Z" />
<path fill="#989898" d=" M 225.26 34.28 C 225.87 34.19 227.09 34.01 227.70 33.93 C 233.49 33.39 233.77 35.78 231.18 39.03 C 228.48 39.13 218.92 35.92 223.86 39.76 C 218.28 40.82 222.66 41.41 227.17 41.23 C 222.32 45.46 215.72 47.91 211.86 53.16 C 218.81 49.67 226.66 45.61 231.18 39.03 C 234.35 38.38 230.58 42.41 231.03 44.13 C 230.83 44.37 230.42 44.84 230.21 45.08 C 226.85 42.70 226.25 48.69 223.15 49.19 C 219.20 50.90 214.14 56.06 216.20 60.33 C 214.33 61.87 209.50 64.48 214.75 64.17 C 216.91 65.62 220.68 67.78 216.54 69.51 C 216.42 72.15 223.46 74.27 221.09 78.00 C 218.84 78.64 216.60 79.28 214.34 79.86 C 213.57 77.15 208.41 75.71 211.58 72.93 C 212.37 71.37 205.45 70.64 209.62 69.67 C 214.94 68.36 207.19 64.05 207.29 61.33 C 210.53 59.58 217.09 50.72 209.94 55.76 C 208.97 56.26 208.01 56.78 207.05 57.29 C 204.03 57.56 205.44 54.48 205.57 52.68 C 209.71 48.31 216.00 46.92 220.19 42.90 C 213.14 44.39 206.91 48.48 200.27 51.19 C 200.14 50.60 199.88 49.44 199.75 48.85 C 205.56 44.64 214.81 43.95 219.08 39.12 C 205.97 39.60 217.89 36.98 222.25 35.28 C 223.25 34.95 224.26 34.62 225.26 34.28 Z" />
<path fill="#a9a9a9" d=" M 195.83 42.01 C 196.96 38.98 200.74 36.15 204.04 36.90 C 203.94 37.72 203.86 38.55 203.81 39.38 C 201.18 40.35 198.54 41.29 195.83 42.01 Z" />
<path fill="#afafaf" d=" M 91.16 36.98 C 91.97 39.00 92.49 41.11 93.10 43.20 C 94.15 46.47 95.16 49.78 95.20 53.25 C 90.98 53.80 90.95 44.89 89.15 41.28 C 90.45 40.17 91.05 38.65 91.16 36.98 Z" />
<path fill="#5f5f5f" d=" M 150.04 37.73 C 154.50 39.02 149.44 46.95 151.08 50.20 C 151.00 50.62 150.84 51.48 150.76 51.91 C 150.53 52.14 150.08 52.62 149.85 52.86 C 146.71 55.68 147.24 60.43 146.02 64.18 C 148.96 60.97 151.45 57.39 153.91 53.80 C 155.67 52.61 157.37 51.31 158.85 49.77 C 163.61 47.96 162.46 53.13 162.04 56.09 C 160.93 57.50 159.77 58.87 158.61 60.23 C 155.55 61.79 152.54 63.83 150.98 67.00 C 147.31 66.45 144.53 68.88 141.68 70.79 C 142.52 68.39 144.14 66.46 145.99 64.78 C 142.77 63.77 142.03 69.93 139.77 66.11 C 141.22 65.08 142.24 63.63 143.15 62.14 C 147.37 58.84 144.22 56.18 142.05 61.15 C 140.40 61.89 138.78 62.69 137.07 63.27 C 137.92 61.82 138.87 60.43 139.59 58.90 C 141.30 55.71 142.58 52.32 144.09 49.04 C 145.51 46.12 146.79 43.14 147.99 40.13 C 148.68 39.34 149.37 38.54 150.04 37.73 Z" />
<path fill="#6e6e6e" d=" M 223.86 39.76 C 218.92 35.92 228.48 39.13 231.18 39.03 C 226.66 45.61 218.81 49.67 211.86 53.16 C 215.72 47.91 222.32 45.46 227.17 41.23 C 222.66 41.41 218.28 40.82 223.86 39.76 Z" />
<path fill="#636363" d=" M 15.87 39.98 C 22.51 38.51 27.86 45.04 34.05 44.27 L 34.61 44.05 C 37.16 48.62 40.93 52.31 44.40 56.18 C 40.64 58.22 40.15 54.24 37.05 53.82 C 32.39 50.16 27.85 46.29 22.66 43.36 C 21.07 42.40 18.60 42.87 18.61 45.07 C 17.20 43.70 16.24 41.91 15.87 39.98 Z" />
<path fill="#393939" d=" M 136.80 46.35 C 137.81 44.82 139.86 37.15 140.31 42.15 C 140.11 43.35 139.90 44.55 139.69 45.74 C 139.87 51.68 134.51 55.04 133.92 60.13 C 135.66 58.13 137.43 56.04 139.59 58.90 C 138.87 60.43 137.92 61.82 137.07 63.27 C 138.78 62.69 140.40 61.89 142.05 61.15 C 142.33 61.40 142.88 61.89 143.15 62.14 C 142.24 63.63 141.22 65.08 139.77 66.11 C 137.43 66.60 135.53 68.26 135.34 70.72 C 133.60 70.13 132.73 70.76 132.76 72.65 C 129.37 71.38 125.43 71.55 122.27 72.72 C 121.33 68.19 120.62 62.21 116.32 59.71 L 116.14 58.91 C 117.78 59.00 119.44 58.94 119.14 56.80 C 121.40 57.81 122.10 60.03 122.78 62.21 C 123.67 57.09 122.78 50.65 126.93 46.77 C 126.39 50.16 125.39 53.47 124.94 56.88 C 128.54 55.41 129.54 56.62 128.19 60.19 C 131.46 55.85 134.44 51.26 136.80 46.35 Z" />
<path fill="#dadada" d=" M 34.61 44.05 C 36.31 39.11 38.72 43.28 41.30 44.65 C 44.95 43.96 48.00 45.97 50.90 47.96 C 52.03 50.54 54.49 52.13 57.06 53.02 C 57.34 53.21 57.89 53.59 58.16 53.77 C 60.38 56.59 62.74 59.28 65.17 61.90 C 67.08 64.63 69.35 67.10 72.15 68.94 C 72.52 69.24 73.26 69.86 73.63 70.16 C 75.03 71.50 76.48 72.79 77.98 74.03 C 78.34 75.46 79.61 77.63 77.04 77.15 C 75.39 76.32 73.73 75.52 72.04 74.80 C 60.81 72.42 51.65 64.73 44.40 56.18 C 40.93 52.31 37.16 48.62 34.61 44.05 Z" />
<path fill="#656565" d=" M 101.89 50.51 C 103.95 47.60 104.40 43.82 105.95 40.83 C 106.24 45.78 106.01 50.75 105.82 55.70 C 104.56 55.33 103.26 55.41 102.03 55.84 C 102.01 54.06 101.96 52.29 101.89 50.51 Z" />
<path fill="#878787" d=" M 168.23 40.72 C 168.35 43.45 168.55 46.17 168.90 48.87 C 166.41 51.08 164.17 53.55 162.04 56.09 C 162.46 53.13 163.61 47.96 158.85 49.77 C 161.94 46.71 165.36 44.00 168.23 40.72 Z" />
<path fill="#aaaaaa" d=" M 18.61 45.07 C 18.60 42.87 21.07 42.40 22.66 43.36 C 27.85 46.29 32.39 50.16 37.05 53.82 C 37.33 54.98 37.58 56.14 37.82 57.31 C 34.06 57.48 31.24 52.77 27.60 54.84 C 26.85 54.33 26.10 53.82 25.35 53.32 C 23.42 50.32 21.14 47.58 18.61 45.07 Z" />
<path fill="#6b6b6b" d=" M 111.28 42.68 C 112.54 45.89 115.38 49.58 114.00 53.07 C 111.41 57.31 112.52 62.52 112.75 67.22 C 108.29 62.65 111.90 55.34 110.35 49.75 C 110.59 47.38 110.90 45.03 111.28 42.68 Z" />
<path fill="#d2d2d2" d=" M 200.27 51.19 C 206.91 48.48 213.14 44.39 220.19 42.90 C 216.00 46.92 209.71 48.31 205.57 52.68 C 201.27 56.00 196.74 59.27 194.07 64.17 C 198.54 62.17 202.78 59.69 207.05 57.29 C 208.01 56.78 208.97 56.26 209.94 55.76 C 205.61 63.28 196.55 65.47 190.84 71.10 C 194.88 70.10 198.89 68.87 203.11 68.95 C 202.30 73.62 193.58 72.49 195.79 79.01 C 191.02 74.42 185.73 77.46 180.74 80.29 C 180.23 80.26 179.21 80.21 178.70 80.18 C 173.93 76.35 165.06 85.63 163.08 78.32 C 164.67 77.52 166.31 76.83 167.94 76.13 C 172.96 75.47 173.93 69.93 176.45 66.43 C 183.49 60.03 192.34 56.30 200.27 51.19 Z" />
<path fill="#636363" d=" M 223.15 49.19 C 226.25 48.69 226.85 42.70 230.21 45.08 C 226.74 51.12 221.99 56.43 216.20 60.33 C 214.14 56.06 219.20 50.90 223.15 49.19 Z" />
<path fill="#6a6a6a" d=" M 75.07 44.75 C 77.84 47.18 78.42 50.96 79.78 54.21 C 80.50 56.23 81.65 58.06 82.77 59.88 C 78.31 62.05 89.43 67.58 83.01 69.38 C 80.38 65.13 78.02 60.72 75.78 56.25 C 78.35 52.33 74.49 48.79 75.07 44.75 Z" />
<path fill="#8e8e8e" d=" M 133.92 60.13 C 134.51 55.04 139.87 51.68 139.69 45.74 C 139.19 50.01 140.37 52.03 144.09 49.04 C 142.58 52.32 141.30 55.71 139.59 58.90 C 137.43 56.04 135.66 58.13 133.92 60.13 Z" />
<path fill="#9b9b9b" d=" M 50.90 47.96 C 53.46 48.99 55.23 51.07 57.06 53.02 C 54.49 52.13 52.03 50.54 50.90 47.96 Z" />
<path fill="#ababab" d=" M 171.91 65.17 C 180.97 59.43 190.02 53.46 199.75 48.85 C 199.88 49.44 200.14 50.60 200.27 51.19 C 192.34 56.30 183.49 60.03 176.45 66.43 C 173.93 69.93 172.96 75.47 167.94 76.13 C 167.26 72.44 170.98 70.41 171.20 66.97 C 167.34 70.02 160.28 71.09 159.91 76.81 C 159.65 76.62 159.13 76.23 158.88 76.04 C 153.72 69.95 169.13 63.44 163.03 59.89 C 166.94 57.69 171.21 52.95 176.03 55.15 C 174.87 58.58 172.21 61.47 171.91 65.17 Z" />
<path fill="#4a4a4a" d=" M 95.90 52.99 C 95.65 50.75 96.38 49.31 98.80 50.04 C 99.31 54.43 99.40 58.87 100.28 63.22 C 100.80 62.24 101.56 61.31 101.65 60.17 C 101.82 58.73 101.95 57.29 102.03 55.84 C 103.26 55.41 104.56 55.33 105.82 55.70 C 105.59 57.78 105.36 59.87 104.79 61.89 C 103.60 63.70 105.66 64.37 106.86 65.32 C 106.24 68.26 103.77 65.27 102.14 64.80 C 102.97 66.46 105.23 69.06 102.35 69.94 C 100.49 64.66 96.07 69.91 93.17 71.04 C 92.32 68.33 91.86 65.52 91.22 62.77 C 91.88 62.92 93.18 63.23 93.83 63.39 C 99.11 64.47 95.78 56.06 95.90 52.99 Z" />
<path fill="#212121" d=" M 110.35 49.75 C 111.90 55.34 108.29 62.65 112.75 67.22 C 112.52 62.52 111.41 57.31 114.00 53.07 C 114.77 55.00 115.60 56.90 116.14 58.91 C 110.12 57.92 115.87 63.61 116.97 66.21 C 116.88 64.03 116.61 61.87 116.32 59.71 C 120.62 62.21 121.33 68.19 122.27 72.72 C 125.43 71.55 129.37 71.38 132.76 72.65 C 132.73 70.76 133.60 70.13 135.34 70.72 C 135.53 68.26 137.43 66.60 139.77 66.11 C 142.03 69.93 142.77 63.77 145.99 64.78 C 144.14 66.46 142.52 68.39 141.68 70.79 C 144.53 68.88 147.31 66.45 150.98 67.00 C 148.57 70.27 149.64 77.87 153.70 72.24 C 158.24 75.60 152.65 75.47 149.74 76.08 C 145.58 76.88 144.00 81.75 143.73 85.47 C 144.00 88.97 146.38 84.14 147.33 83.13 C 149.84 84.07 153.56 85.18 154.08 88.14 C 151.87 88.46 147.35 84.08 147.02 87.30 C 150.11 87.20 152.25 92.45 154.73 88.79 C 153.15 94.57 154.45 91.38 158.12 89.88 C 157.41 92.47 154.59 99.83 152.51 94.46 C 150.07 90.18 152.44 97.83 149.55 96.45 C 145.89 95.42 150.02 98.88 151.07 99.86 C 147.94 102.73 142.28 96.29 142.83 101.94 C 140.67 99.91 137.95 95.15 134.94 98.71 C 131.94 95.92 138.93 96.98 138.00 93.91 C 138.94 89.80 133.05 93.40 133.52 95.98 C 132.07 93.68 130.55 91.25 128.21 89.80 C 128.31 92.89 128.98 95.99 128.59 99.08 C 127.31 93.74 127.51 97.92 126.13 100.07 C 125.93 98.49 125.54 95.33 125.35 93.75 C 124.20 90.58 117.68 82.12 116.46 89.02 C 116.55 90.72 119.80 90.85 120.35 92.77 C 116.90 90.07 111.85 95.74 112.69 89.10 C 107.25 87.47 107.53 94.12 102.63 94.34 C 100.34 94.62 98.82 101.04 97.49 97.09 C 94.98 100.60 95.89 104.64 97.04 108.45 C 95.82 108.39 94.53 108.45 94.63 110.01 C 96.10 113.41 95.31 117.29 97.10 120.62 C 99.46 118.14 101.43 122.18 102.86 123.78 C 96.62 124.30 101.46 131.00 105.86 128.41 C 109.06 127.85 111.85 130.35 106.83 130.32 C 110.53 131.34 116.35 136.38 118.65 131.21 C 119.92 134.85 122.89 137.97 122.11 131.91 C 122.99 134.46 125.43 135.59 127.84 136.32 C 125.05 134.45 129.40 131.72 126.13 129.97 C 127.91 130.03 129.70 130.14 131.49 130.11 C 132.13 131.77 131.94 135.75 133.33 132.27 C 134.05 129.74 135.30 130.64 136.60 132.25 C 134.85 128.73 138.55 126.93 141.56 127.74 C 139.86 124.35 143.87 125.30 144.98 123.76 C 146.66 120.44 140.35 124.71 142.83 121.79 C 145.94 119.44 139.28 117.59 142.44 115.44 C 145.41 112.13 138.97 102.96 146.10 104.32 C 147.37 103.75 149.32 99.10 150.58 102.42 C 152.13 105.72 153.78 101.32 151.89 99.70 C 152.94 99.01 155.30 96.40 154.39 99.28 C 152.89 104.15 164.19 102.36 160.78 105.93 C 159.22 105.84 157.72 105.37 156.21 105.04 C 159.16 109.04 156.02 114.54 159.78 118.20 C 160.62 116.14 159.01 110.93 162.68 112.55 C 163.01 110.33 163.52 108.03 162.35 105.96 C 164.62 104.19 167.71 107.14 169.30 108.90 C 166.38 110.06 169.82 109.96 171.12 110.28 C 170.07 112.85 167.81 110.64 166.02 110.23 C 162.78 113.84 170.06 112.26 169.80 116.32 C 168.10 115.66 166.54 114.72 164.91 113.91 C 165.60 115.78 166.81 117.27 168.84 117.69 C 169.96 118.14 171.07 118.65 172.15 119.21 C 166.55 120.13 168.47 121.68 172.19 123.64 C 173.94 125.00 175.72 126.36 177.21 128.02 C 173.43 129.10 171.77 125.29 168.86 123.90 C 169.84 125.70 171.05 127.36 172.04 129.15 C 168.23 129.47 166.41 123.16 166.84 129.85 C 161.16 127.94 165.55 130.67 163.05 133.65 C 161.39 133.16 159.80 132.47 158.17 131.89 C 161.09 135.25 156.07 140.61 152.57 138.43 C 150.62 138.10 156.88 143.96 152.66 142.39 C 147.70 139.91 152.64 147.09 155.15 145.24 C 155.11 145.96 155.05 147.39 155.02 148.10 C 150.99 150.03 150.55 140.62 146.27 144.04 C 148.96 147.08 145.21 149.80 147.81 152.52 C 145.90 153.08 144.72 154.56 143.81 156.24 C 143.60 155.85 143.20 155.06 143.00 154.66 C 143.45 151.99 144.31 149.43 145.10 146.85 C 142.65 148.04 141.56 150.35 141.36 152.95 C 137.58 154.13 139.82 149.87 139.85 147.79 C 136.54 149.48 138.24 153.80 139.75 156.32 C 139.77 156.92 139.81 158.13 139.83 158.73 C 139.68 162.03 138.25 163.64 135.07 161.80 C 135.89 159.33 138.90 153.97 134.82 157.96 C 135.14 155.60 135.70 153.29 136.02 150.94 C 131.94 151.84 133.82 156.71 131.92 159.52 C 130.94 161.68 130.17 163.93 129.72 166.27 C 127.90 164.36 128.10 161.67 127.85 159.20 C 129.02 157.99 132.63 152.23 129.00 154.01 C 126.72 157.32 123.31 152.11 125.81 157.13 C 125.71 159.12 125.59 161.12 125.38 163.11 C 124.01 160.69 122.50 158.36 121.18 155.91 C 120.75 157.56 121.77 160.78 119.00 160.12 C 116.52 154.06 110.07 151.37 103.92 154.11 C 102.61 155.18 101.42 156.40 100.26 157.64 C 98.46 157.52 96.65 157.43 94.85 157.22 C 96.90 154.75 102.84 148.05 97.12 147.17 C 96.04 149.26 96.73 151.93 95.58 154.08 C 94.84 150.37 90.09 150.74 88.89 147.08 C 91.63 143.95 87.92 145.84 86.04 146.53 C 85.60 146.71 84.71 147.07 84.27 147.25 C 86.86 142.81 79.00 142.39 84.77 139.56 C 91.11 138.05 84.50 139.06 81.79 136.35 C 88.30 135.81 81.86 133.43 78.92 134.60 L 78.16 134.72 C 78.63 133.63 80.34 132.18 78.40 131.59 C 79.27 130.54 82.53 128.96 79.43 128.84 C 79.08 128.31 78.36 127.24 78.01 126.71 C 75.62 123.94 79.48 125.79 81.10 125.95 C 81.10 122.59 76.20 123.50 74.21 124.85 C 72.81 122.47 70.50 118.63 74.46 117.37 C 83.90 119.14 77.98 114.69 75.59 115.56 C 72.60 115.96 70.18 121.11 67.74 117.17 C 68.90 116.34 70.05 115.49 71.20 114.65 C 73.55 113.03 76.49 113.78 79.09 112.94 C 78.22 107.82 68.81 114.96 70.73 109.81 C 70.46 105.02 79.58 112.11 77.51 108.52 C 73.28 107.31 70.96 103.38 66.81 102.15 L 67.95 102.06 C 68.65 102.00 70.06 101.88 70.76 101.82 C 72.90 103.67 75.23 105.63 78.29 104.87 C 82.02 111.84 85.19 102.10 86.59 98.64 C 85.57 102.83 87.33 106.61 88.80 110.34 C 85.92 102.64 90.96 96.34 92.72 89.38 C 90.90 89.34 88.04 85.96 87.17 88.61 C 89.15 89.30 92.56 95.29 88.71 94.44 C 86.08 93.44 87.03 99.84 84.43 96.69 C 81.61 94.23 85.20 100.50 82.15 99.86 C 80.61 98.64 81.15 91.43 83.66 94.30 C 86.82 96.49 83.80 91.00 81.69 91.41 C 82.11 89.15 84.33 88.38 86.04 87.26 C 83.46 87.23 80.98 86.40 79.86 83.90 C 81.65 84.39 85.74 87.33 83.13 83.84 C 80.77 81.50 84.31 81.57 85.96 80.93 C 91.93 81.37 92.21 77.35 89.48 73.12 C 91.25 69.54 89.68 66.08 88.14 62.77 C 87.23 58.51 89.50 60.94 91.22 62.77 C 91.86 65.52 92.32 68.33 93.17 71.04 C 96.07 69.91 100.49 64.66 102.35 69.94 C 105.23 69.06 102.97 66.46 102.14 64.80 C 103.77 65.27 106.24 68.26 106.86 65.32 C 105.66 64.37 103.60 63.70 104.79 61.89 C 108.13 64.64 107.28 59.82 107.64 57.25 C 108.72 54.82 109.56 52.29 110.35 49.75 Z" />
<path fill="#333333" d=" M 13.60 53.65 C 16.00 48.67 21.32 52.79 25.35 53.32 C 26.10 53.82 26.85 54.33 27.60 54.84 C 30.41 57.84 33.36 60.72 36.05 63.84 C 37.02 65.10 38.01 66.34 39.11 67.49 C 35.48 66.27 31.66 64.37 30.26 69.06 C 26.65 68.41 23.03 67.80 19.46 66.93 C 20.46 69.59 17.57 69.01 15.81 69.32 C 17.66 70.44 19.64 71.36 21.76 71.84 C 22.28 73.18 22.61 74.57 22.01 75.94 C 21.83 76.63 21.78 77.33 21.85 78.04 C 22.31 81.32 19.26 83.70 19.81 87.05 C 13.72 82.70 16.14 73.18 11.14 68.83 C 5.77 65.98 14.83 66.31 17.06 66.99 C 16.73 62.30 9.78 57.94 13.60 53.65 Z" />
<path fill="#8a8a8a" d=" M 146.02 64.18 C 147.24 60.43 146.71 55.68 149.85 52.86 C 147.58 58.41 150.75 55.94 153.91 53.80 C 151.45 57.39 148.96 60.97 146.02 64.18 Z" />
<path fill="#b9b9b9" d=" M 194.07 64.17 C 196.74 59.27 201.27 56.00 205.57 52.68 C 205.44 54.48 204.03 57.56 207.05 57.29 C 202.78 59.69 198.54 62.17 194.07 64.17 Z" />
<path fill="#dcdcdc" d=" M 27.60 54.84 C 31.24 52.77 34.06 57.48 37.82 57.31 C 47.04 70.34 65.74 71.64 75.20 84.00 C 73.45 84.02 71.70 84.03 69.96 84.01 C 69.65 83.74 69.05 83.22 68.75 82.95 C 67.30 81.70 65.91 80.17 63.92 79.87 C 62.67 82.63 69.04 87.03 65.25 87.58 C 60.22 85.70 55.28 83.01 49.77 82.96 C 54.08 86.80 60.56 87.33 65.67 90.05 C 66.95 91.12 72.37 94.03 68.09 94.03 C 61.79 94.62 70.63 98.08 67.95 102.06 L 66.81 102.15 C 66.27 102.14 65.19 102.12 64.65 102.11 C 57.64 100.25 70.78 107.75 59.42 103.49 C 54.29 104.69 72.06 107.73 64.96 111.91 C 62.51 113.47 65.83 112.82 67.02 112.95 C 68.59 113.04 70.07 113.51 71.20 114.65 C 70.05 115.49 68.90 116.34 67.74 117.17 C 66.78 117.84 65.85 118.54 64.96 119.30 C 63.60 120.53 62.43 121.95 61.01 123.12 C 61.01 120.64 61.88 118.34 62.72 116.06 C 59.45 113.62 54.59 116.83 50.86 114.89 C 52.85 111.88 56.88 111.90 59.94 110.66 C 57.85 102.33 45.23 108.28 40.59 101.99 C 45.32 99.73 49.65 102.00 54.16 103.13 C 49.47 97.11 39.32 102.50 33.71 96.87 C 34.78 95.01 36.34 93.40 36.98 91.32 C 34.85 90.33 32.20 90.09 30.76 88.00 C 33.18 87.59 36.74 90.22 38.05 87.23 C 36.02 85.71 32.32 85.35 32.89 82.04 C 38.06 82.19 43.23 82.41 48.39 82.68 C 42.32 80.11 35.57 80.34 29.26 78.81 C 25.96 76.51 29.39 73.72 32.12 73.23 C 33.14 72.82 34.16 72.40 35.18 71.98 C 39.46 72.90 43.77 73.86 48.17 74.01 C 49.92 74.24 55.23 76.69 53.68 73.32 C 47.92 69.94 41.94 66.97 36.05 63.84 C 33.36 60.72 30.41 57.84 27.60 54.84 Z" />
<path fill="#949494" d=" M 37.05 53.82 C 40.15 54.24 40.64 58.22 44.40 56.18 C 51.65 64.73 60.81 72.42 72.04 74.80 C 67.45 74.90 74.07 77.03 75.02 78.74 C 72.49 81.04 79.55 84.47 75.20 84.00 C 65.74 71.64 47.04 70.34 37.82 57.31 C 37.58 56.14 37.33 54.98 37.05 53.82 Z" />
<path fill="#929292" d=" M 58.16 53.77 C 61.75 55.35 64.04 58.63 66.22 61.73 L 65.17 61.90 C 62.74 59.28 60.38 56.59 58.16 53.77 Z" />
<path fill="#bdbdbd" d=" M 209.94 55.76 C 217.09 50.72 210.53 59.58 207.29 61.33 C 207.19 64.05 214.94 68.36 209.62 69.67 C 205.45 70.64 212.37 71.37 211.58 72.93 C 208.41 75.71 213.57 77.15 214.34 79.86 C 212.77 80.61 211.21 81.38 209.73 82.28 C 204.65 85.01 212.60 83.94 215.27 83.39 C 216.78 83.18 218.30 82.96 219.84 83.05 C 225.32 85.66 228.14 92.07 234.22 92.99 C 236.42 93.49 240.82 94.50 243.01 95.01 C 240.01 97.54 234.06 96.41 229.80 97.20 C 232.25 98.31 234.78 99.28 237.12 100.64 C 235.08 101.55 224.96 103.11 230.17 104.33 C 225.06 104.93 219.96 105.81 214.81 106.06 C 219.83 104.77 224.63 100.83 230.13 101.91 C 229.65 97.88 224.37 96.38 220.99 97.01 C 208.69 96.19 196.50 97.96 184.47 100.25 C 180.93 99.39 177.40 98.45 174.13 96.81 C 175.42 93.71 178.00 91.55 181.29 90.85 C 184.86 91.57 183.98 86.86 186.14 85.12 C 189.05 81.51 182.96 81.41 180.74 80.29 C 185.73 77.46 191.02 74.42 195.79 79.01 C 193.58 72.49 202.30 73.62 203.11 68.95 C 198.89 68.87 194.88 70.10 190.84 71.10 C 196.55 65.47 205.61 63.28 209.94 55.76 Z" />
<path fill="#9f9f9f" d=" M 142.05 61.15 C 144.22 56.18 147.37 58.84 143.15 62.14 C 142.88 61.89 142.33 61.40 142.05 61.15 Z" />
<path fill="#6a6a6a" d=" M 116.97 66.21 C 115.87 63.61 110.12 57.92 116.14 58.91 L 116.32 59.71 C 116.61 61.87 116.88 64.03 116.97 66.21 Z" />
<path fill="#7d7d7d" d=" M 125.34 59.24 C 130.06 59.60 122.46 65.79 125.34 59.24 Z" />
<path fill="#373737" d=" M 83.01 69.38 C 89.43 67.58 78.31 62.05 82.77 59.88 C 84.25 61.67 85.84 63.38 87.37 65.14 C 88.43 67.70 89.00 70.41 89.48 73.12 C 92.21 77.35 91.93 81.37 85.96 80.93 C 84.25 79.78 82.72 78.40 81.28 76.95 C 80.23 75.91 79.13 74.94 77.98 74.03 C 76.48 72.79 75.03 71.50 73.63 70.16 C 74.05 68.97 74.49 67.78 74.95 66.60 C 77.41 69.14 79.70 71.85 82.07 74.47 C 83.25 75.83 84.59 77.04 86.01 78.15 C 85.13 75.45 84.11 72.79 83.25 70.08 L 83.01 69.38 Z" />
<path fill="#676767" d=" M 108.02 59.94 C 110.04 60.98 110.04 66.02 108.02 67.06 C 107.91 64.69 107.91 62.31 108.02 59.94 Z" />
<path fill="#7b7b7b" d=" M 130.34 60.20 C 135.22 61.03 129.10 66.43 130.34 60.20 Z" />
<path fill="#a8a8a8" d=" M 150.98 67.00 C 152.54 63.83 155.55 61.79 158.61 60.23 C 160.09 60.18 161.56 60.06 163.03 59.89 C 159.40 62.88 155.29 65.15 150.98 67.00 Z" />
<path fill="#5d5d5d" d=" M 163.03 59.89 C 169.13 63.44 153.72 69.95 158.88 76.04 C 158.39 76.27 157.42 76.72 156.94 76.94 C 154.50 77.36 151.27 78.97 149.74 76.08 C 152.65 75.47 158.24 75.60 153.70 72.24 C 149.64 77.87 148.57 70.27 150.98 67.00 C 155.29 65.15 159.40 62.88 163.03 59.89 Z" />
<path fill="#a5a5a5" d=" M 65.17 61.90 L 66.22 61.73 C 68.42 63.94 70.54 66.25 72.15 68.94 C 69.35 67.10 67.08 64.63 65.17 61.90 Z" />
<path fill="#838383" d=" M 88.14 62.77 C 89.68 66.08 91.25 69.54 89.48 73.12 C 89.00 70.41 88.43 67.70 87.37 65.14 C 87.56 64.55 87.95 63.36 88.14 62.77 Z" />
<path fill="#7b7b7b" d=" M 36.05 63.84 C 41.94 66.97 47.92 69.94 53.68 73.32 C 55.23 76.69 49.92 74.24 48.17 74.01 C 45.19 71.78 42.35 69.33 39.11 67.49 C 38.01 66.34 37.02 65.10 36.05 63.84 Z" />
<path fill="#7e7e7e" d=" M 214.75 64.17 C 216.44 64.12 218.13 64.05 219.83 64.03 C 222.43 65.63 223.47 67.57 220.90 69.80 C 225.09 69.60 225.52 70.61 222.11 72.78 C 224.21 73.62 227.45 73.31 228.30 75.88 C 225.90 76.61 223.50 77.33 221.09 78.00 C 223.46 74.27 216.42 72.15 216.54 69.51 C 220.68 67.78 216.91 65.62 214.75 64.17 Z" />
<path fill="#5f5f5f" d=" M 219.83 64.03 C 221.66 64.02 225.32 63.99 227.15 63.97 C 227.07 69.09 228.40 72.42 233.39 73.99 C 231.71 74.67 230.04 75.39 228.30 75.88 C 227.45 73.31 224.21 73.62 222.11 72.78 C 225.52 70.61 225.09 69.60 220.90 69.80 C 223.47 67.57 222.43 65.63 219.83 64.03 Z" />
<path fill="#404040" d=" M 227.15 63.97 C 233.17 65.09 238.94 67.75 245.22 67.23 C 241.68 70.13 237.99 73.08 233.39 73.99 C 228.40 72.42 227.07 69.09 227.15 63.97 Z" />
<path fill="#515151" d=" M 30.26 69.06 C 31.66 64.37 35.48 66.27 39.11 67.49 C 42.35 69.33 45.19 71.78 48.17 74.01 C 43.77 73.86 39.46 72.90 35.18 71.98 C 33.55 70.98 31.90 70.03 30.26 69.06 Z" />
<path fill="#828282" d=" M 19.46 66.93 C 23.03 67.80 26.65 68.41 30.26 69.06 C 31.90 70.03 33.55 70.98 35.18 71.98 C 34.16 72.40 33.14 72.82 32.12 73.23 C 28.65 72.87 25.18 70.00 21.76 71.84 C 19.64 71.36 17.66 70.44 15.81 69.32 C 17.57 69.01 20.46 69.59 19.46 66.93 Z" />
<path fill="#8c8c8c" d=" M 159.91 76.81 C 160.28 71.09 167.34 70.02 171.20 66.97 C 170.98 70.41 167.26 72.44 167.94 76.13 C 166.31 76.83 164.67 77.52 163.08 78.32 C 165.06 85.63 173.93 76.35 178.70 80.18 C 179.05 83.27 188.05 84.25 181.32 84.88 C 175.41 83.19 170.23 86.53 164.96 88.46 C 166.33 85.76 162.39 84.44 167.14 84.76 C 166.09 81.95 163.71 83.92 161.94 84.80 C 160.37 83.05 163.28 82.22 164.17 80.99 C 161.73 81.59 159.34 82.37 156.92 83.05 C 158.44 81.43 160.10 79.89 161.11 77.88 C 158.47 77.64 156.97 79.89 155.10 81.30 C 155.65 79.82 156.27 78.37 156.94 76.94 C 157.42 76.72 158.39 76.27 158.88 76.04 C 159.13 76.23 159.65 76.62 159.91 76.81 Z" />
<path fill="#979797" d=" M 83.25 70.08 C 84.11 72.79 85.13 75.45 86.01 78.15 C 84.59 77.04 83.25 75.83 82.07 74.47 C 82.54 73.03 82.93 71.57 83.25 70.08 Z" />
<path fill="#676767" d=" M 146.31 70.28 C 149.97 68.97 145.09 73.31 144.61 74.83 C 141.33 73.96 145.00 71.39 146.31 70.28 Z" />
<path fill="#bcbcbc" d=" M 21.76 71.84 C 25.18 70.00 28.65 72.87 32.12 73.23 C 29.39 73.72 25.96 76.51 29.26 78.81 C 35.57 80.34 42.32 80.11 48.39 82.68 C 43.23 82.41 38.06 82.19 32.89 82.04 C 32.32 85.35 36.02 85.71 38.05 87.23 C 36.74 90.22 33.18 87.59 30.76 88.00 C 32.20 90.09 34.85 90.33 36.98 91.32 C 36.34 93.40 34.78 95.01 33.71 96.87 C 33.35 96.85 32.63 96.80 32.27 96.77 C 30.94 95.78 29.55 94.89 28.07 94.14 C 29.27 91.17 30.93 87.48 26.14 87.06 C 28.52 85.59 27.24 83.44 26.55 81.39 C 29.39 80.04 25.29 79.57 24.15 78.91 C 23.58 78.69 22.42 78.26 21.85 78.04 C 21.78 77.33 21.83 76.63 22.01 75.94 C 23.59 75.08 27.55 75.92 26.84 73.27 C 25.17 72.73 23.46 72.29 21.76 71.84 Z" />
<path fill="#6d6d6d" d=" M 21.76 71.84 C 23.46 72.29 25.17 72.73 26.84 73.27 C 27.55 75.92 23.59 75.08 22.01 75.94 C 22.61 74.57 22.28 73.18 21.76 71.84 Z" />
<path fill="#868686" d=" M 77.98 74.03 C 79.13 74.94 80.23 75.91 81.28 76.95 C 80.24 77.69 79.20 78.44 78.17 79.19 C 77.88 78.68 77.32 77.66 77.04 77.15 C 79.61 77.63 78.34 75.46 77.98 74.03 Z" />
<path fill="#2a2a2a" d=" M 75.02 78.74 C 74.07 77.03 67.45 74.90 72.04 74.80 C 73.73 75.52 75.39 76.32 77.04 77.15 C 77.32 77.66 77.88 78.68 78.17 79.19 C 78.64 83.64 76.68 80.50 75.02 78.74 Z" />
<path fill="#313131" d=" M 143.73 85.47 C 144.00 81.75 145.58 76.88 149.74 76.08 C 151.27 78.97 154.50 77.36 156.94 76.94 C 156.27 78.37 155.65 79.82 155.10 81.30 C 156.97 79.89 158.47 77.64 161.11 77.88 C 160.10 79.89 158.44 81.43 156.92 83.05 C 159.34 82.37 161.73 81.59 164.17 80.99 C 163.28 82.22 160.37 83.05 161.94 84.80 C 163.71 83.92 166.09 81.95 167.14 84.76 C 162.39 84.44 166.33 85.76 164.96 88.46 C 163.30 89.26 160.19 88.94 161.01 91.63 C 164.18 91.08 166.90 92.93 169.81 93.84 C 172.98 98.24 164.04 93.05 162.78 97.75 C 165.77 97.89 169.38 96.30 171.41 99.21 C 170.02 103.92 166.19 98.17 166.50 102.58 C 165.66 104.62 169.03 103.44 170.08 104.50 L 170.96 104.86 C 170.68 106.35 171.80 109.27 169.30 108.90 C 167.71 107.14 164.62 104.19 162.35 105.96 C 163.52 108.03 163.01 110.33 162.68 112.55 C 159.01 110.93 160.62 116.14 159.78 118.20 C 156.02 114.54 159.16 109.04 156.21 105.04 C 157.72 105.37 159.22 105.84 160.78 105.93 C 164.19 102.36 152.89 104.15 154.39 99.28 C 155.30 96.40 152.94 99.01 151.89 99.70 L 151.07 99.86 C 150.02 98.88 145.89 95.42 149.55 96.45 C 152.44 97.83 150.07 90.18 152.51 94.46 C 154.59 99.83 157.41 92.47 158.12 89.88 C 154.45 91.38 153.15 94.57 154.73 88.79 C 152.25 92.45 150.11 87.20 147.02 87.30 C 147.35 84.08 151.87 88.46 154.08 88.14 C 153.56 85.18 149.84 84.07 147.33 83.13 C 146.38 84.14 144.00 88.97 143.73 85.47 Z" />
<path fill="#525252" d=" M 81.28 76.95 C 82.72 78.40 84.25 79.78 85.96 80.93 C 84.31 81.57 80.77 81.50 83.13 83.84 C 85.74 87.33 81.65 84.39 79.86 83.90 C 80.98 86.40 83.46 87.23 86.04 87.26 C 84.33 88.38 82.11 89.15 81.69 91.41 C 78.70 92.48 77.57 95.85 76.74 98.63 C 82.42 98.16 75.88 101.65 73.45 98.86 L 74.09 98.29 C 76.65 97.50 75.69 94.00 73.34 93.91 C 73.42 95.48 73.56 97.13 72.02 98.07 C 70.68 98.15 69.69 97.37 68.89 96.39 C 73.96 96.66 70.75 90.95 70.98 87.93 C 72.14 89.08 73.05 91.94 74.87 90.03 C 73.29 87.98 71.59 86.01 69.96 84.01 C 71.70 84.03 73.45 84.02 75.20 84.00 C 79.55 84.47 72.49 81.04 75.02 78.74 C 76.68 80.50 78.64 83.64 78.17 79.19 C 79.20 78.44 80.24 77.69 81.28 76.95 Z" />
<path fill="#545454" d=" M 21.85 78.04 C 22.42 78.26 23.58 78.69 24.15 78.91 C 25.95 81.78 21.19 86.51 26.14 87.06 C 23.00 89.87 24.09 93.19 28.07 94.14 C 21.55 98.08 12.51 91.79 6.77 97.75 C 17.53 97.94 1.02 99.50 6.23 103.81 C 7.40 103.97 8.57 104.03 9.74 104.00 C 16.23 104.54 23.06 102.79 29.37 104.81 C 28.00 105.32 26.62 105.83 25.22 106.28 C 17.77 105.28 10.26 104.54 2.74 105.14 C 6.66 108.30 12.18 107.13 16.37 109.73 C 14.68 110.42 13.06 111.25 11.42 112.05 C 7.52 110.48 3.74 108.67 0.00 106.76 L 0.00 104.53 C 2.66 97.00 8.60 90.63 17.44 91.42 C 25.63 93.60 21.26 89.19 19.81 87.05 C 19.26 83.70 22.31 81.32 21.85 78.04 Z" />
<path fill="#898989" d=" M 24.15 78.91 C 25.29 79.57 29.39 80.04 26.55 81.39 C 27.24 83.44 28.52 85.59 26.14 87.06 C 21.19 86.51 25.95 81.78 24.15 78.91 Z" />
<path fill="#c3c3c3" d=" M 63.92 79.87 C 65.91 80.17 67.30 81.70 68.75 82.95 C 68.05 85.80 69.82 89.60 65.67 90.05 C 60.56 87.33 54.08 86.80 49.77 82.96 C 55.28 83.01 60.22 85.70 65.25 87.58 C 69.04 87.03 62.67 82.63 63.92 79.87 Z" />
<path fill="#a8a8a8" d=" M 178.70 80.18 C 179.21 80.21 180.23 80.26 180.74 80.29 C 182.96 81.41 189.05 81.51 186.14 85.12 C 183.98 86.86 184.86 91.57 181.29 90.85 C 178.80 90.45 176.29 89.59 173.94 90.73 C 172.38 91.03 169.25 91.64 167.69 91.94 C 170.16 90.66 175.94 88.89 169.82 88.73 C 172.59 85.17 177.85 87.53 181.32 84.88 C 188.05 84.25 179.05 83.27 178.70 80.18 Z" />
<path fill="#585858" d=" M 215.27 83.39 C 212.60 83.94 204.65 85.01 209.73 82.28 C 211.56 82.73 213.40 83.09 215.27 83.39 Z" />
<path fill="#9b9b9b" d=" M 68.75 82.95 C 69.05 83.22 69.65 83.74 69.96 84.01 C 71.59 86.01 73.29 87.98 74.87 90.03 C 73.05 91.94 72.14 89.08 70.98 87.93 C 70.75 90.95 73.96 96.66 68.89 96.39 C 69.69 97.37 70.68 98.15 72.02 98.07 C 72.54 98.12 73.58 98.23 74.09 98.29 L 73.45 98.86 L 72.90 99.35 C 72.10 100.09 71.45 100.98 70.76 101.82 C 70.06 101.88 68.65 102.00 67.95 102.06 C 70.63 98.08 61.79 94.62 68.09 94.03 C 72.37 94.03 66.95 91.12 65.67 90.05 C 69.82 89.60 68.05 85.80 68.75 82.95 Z" />
<path fill="#989898" d=" M 219.84 83.05 C 224.29 83.40 228.69 84.45 232.95 85.78 C 231.48 88.32 234.28 90.39 234.22 92.99 C 228.14 92.07 225.32 85.66 219.84 83.05 Z" />
<path fill="#5a5a5a" d=" M 164.96 88.46 C 170.23 86.53 175.41 83.19 181.32 84.88 C 177.85 87.53 172.59 85.17 169.82 88.73 C 175.94 88.89 170.16 90.66 167.69 91.94 C 169.25 91.64 172.38 91.03 173.94 90.73 C 178.85 91.30 171.54 93.29 169.81 93.84 C 166.90 92.93 164.18 91.08 161.01 91.63 C 160.19 88.94 163.30 89.26 164.96 88.46 Z" />
<path fill="#4f4f4f" d=" M 116.46 89.02 C 117.68 82.12 124.20 90.58 125.35 93.75 C 125.82 97.28 123.90 99.61 123.55 94.80 C 120.02 101.39 125.62 105.04 130.36 105.35 C 127.68 106.50 124.89 107.34 122.10 108.14 C 120.85 105.85 118.69 100.13 118.90 106.03 C 117.56 102.65 116.68 105.89 115.68 107.59 C 112.61 108.06 107.06 103.32 111.66 101.63 C 113.58 99.02 115.53 101.55 117.32 102.90 C 116.45 100.71 112.79 95.94 116.93 95.36 C 118.98 96.37 121.44 95.01 120.35 92.77 C 119.80 90.85 116.55 90.72 116.46 89.02 Z" />
<path fill="#797979" d=" M 232.95 85.78 C 235.30 86.89 239.31 86.81 239.96 89.83 C 240.22 93.84 244.85 94.47 247.58 96.34 C 251.37 98.33 239.62 94.98 242.25 98.70 C 243.88 99.48 245.60 100.04 247.28 100.70 C 243.71 99.76 241.86 100.79 241.73 103.81 C 241.25 103.86 240.29 103.96 239.81 104.00 C 243.88 98.43 235.16 104.08 233.01 103.96 C 232.30 104.05 230.88 104.23 230.17 104.33 C 224.96 103.11 235.08 101.55 237.12 100.64 C 234.78 99.28 232.25 98.31 229.80 97.20 C 234.06 96.41 240.01 97.54 243.01 95.01 C 240.82 94.50 236.42 93.49 234.22 92.99 C 234.28 90.39 231.48 88.32 232.95 85.78 Z" />
<path fill="#898989" d=" M 26.14 87.06 C 30.93 87.48 29.27 91.17 28.07 94.14 C 24.09 93.19 23.00 89.87 26.14 87.06 Z" />
<path fill="#353535" d=" M 87.17 88.61 C 88.04 85.96 90.90 89.34 92.72 89.38 C 90.96 96.34 85.92 102.64 88.80 110.34 C 87.33 106.61 85.57 102.83 86.59 98.64 C 85.19 102.10 82.02 111.84 78.29 104.87 C 78.40 101.29 73.88 102.39 72.90 99.35 L 73.45 98.86 C 75.88 101.65 82.42 98.16 76.74 98.63 C 77.57 95.85 78.70 92.48 81.69 91.41 C 83.80 91.00 86.82 96.49 83.66 94.30 C 81.15 91.43 80.61 98.64 82.15 99.86 C 85.20 100.50 81.61 94.23 84.43 96.69 C 87.03 99.84 86.08 93.44 88.71 94.44 C 92.56 95.29 89.15 89.30 87.17 88.61 Z" />
<path fill="#3f3f3f" d=" M 102.63 94.34 C 107.53 94.12 107.25 87.47 112.69 89.10 C 111.85 95.74 116.90 90.07 120.35 92.77 C 121.44 95.01 118.98 96.37 116.93 95.36 C 112.79 95.94 116.45 100.71 117.32 102.90 C 115.53 101.55 113.58 99.02 111.66 101.63 C 107.06 103.32 112.61 108.06 115.68 107.59 C 116.68 105.89 117.56 102.65 118.90 106.03 C 118.69 100.13 120.85 105.85 122.10 108.14 C 122.74 109.49 123.38 110.85 124.10 112.16 C 125.77 114.96 127.73 115.89 126.28 111.85 C 128.87 113.24 132.22 115.46 130.26 110.87 C 132.20 112.27 136.71 114.62 133.15 111.16 C 139.00 111.79 139.57 105.93 137.14 103.03 C 135.65 97.09 133.52 104.74 130.36 105.35 C 131.68 101.62 126.51 103.19 128.59 99.08 C 128.98 95.99 128.31 92.89 128.21 89.80 C 130.55 91.25 132.07 93.68 133.52 95.98 C 133.05 93.40 138.94 89.80 138.00 93.91 C 138.93 96.98 131.94 95.92 134.94 98.71 C 137.95 95.15 140.67 99.91 142.83 101.94 C 142.28 96.29 147.94 102.73 151.07 99.86 L 151.89 99.70 C 153.78 101.32 152.13 105.72 150.58 102.42 C 149.32 99.10 147.37 103.75 146.10 104.32 C 138.97 102.96 145.41 112.13 142.44 115.44 C 139.28 117.59 145.94 119.44 142.83 121.79 C 140.35 124.71 146.66 120.44 144.98 123.76 C 143.87 125.30 139.86 124.35 141.56 127.74 C 138.55 126.93 134.85 128.73 136.60 132.25 C 135.30 130.64 134.05 129.74 133.33 132.27 C 131.94 135.75 132.13 131.77 131.49 130.11 C 128.19 127.04 124.00 129.45 121.06 126.40 C 117.94 129.49 114.31 126.57 111.39 129.04 C 110.64 125.72 111.08 123.04 115.22 123.58 C 113.41 122.64 111.40 122.17 109.37 122.12 C 110.17 125.00 107.62 126.64 105.86 128.41 C 101.46 131.00 96.62 124.30 102.86 123.78 C 101.43 122.18 99.46 118.14 97.10 120.62 C 95.31 117.29 96.10 113.41 94.63 110.01 C 94.53 108.45 95.82 108.39 97.04 108.45 C 95.89 104.64 94.98 100.60 97.49 97.09 C 98.82 101.04 100.34 94.62 102.63 94.34 Z" />
<path fill="#474747" d=" M 239.96 89.83 C 245.30 88.38 249.44 95.10 254.00 97.06 C 252.62 102.47 246.61 103.65 241.73 103.81 C 241.86 100.79 243.71 99.76 247.28 100.70 C 245.60 100.04 243.88 99.48 242.25 98.70 C 239.62 94.98 251.37 98.33 247.58 96.34 C 244.85 94.47 240.22 93.84 239.96 89.83 Z" />
<path fill="#848484" d=" M 173.94 90.73 C 176.29 89.59 178.80 90.45 181.29 90.85 C 178.00 91.55 175.42 93.71 174.13 96.81 C 177.40 98.45 180.93 99.39 184.47 100.25 C 183.32 100.45 182.17 100.61 181.01 100.73 C 177.84 99.97 174.64 99.51 171.41 99.21 C 169.38 96.30 165.77 97.89 162.78 97.75 C 164.04 93.05 172.98 98.24 169.81 93.84 C 171.54 93.29 178.85 91.30 173.94 90.73 Z" />
<path fill="#868686" d=" M 28.07 94.14 C 29.55 94.89 30.94 95.78 32.27 96.77 C 26.06 98.85 19.53 98.89 13.06 99.12 C 11.89 104.82 23.30 97.70 24.09 101.97 C 20.05 103.56 11.75 99.21 9.74 104.00 C 8.57 104.03 7.40 103.97 6.23 103.81 C 1.02 99.50 17.53 97.94 6.77 97.75 C 12.51 91.79 21.55 98.08 28.07 94.14 Z" />
<path fill="#171717" d=" M 73.34 93.91 C 75.69 94.00 76.65 97.50 74.09 98.29 C 73.58 98.23 72.54 98.12 72.02 98.07 C 73.56 97.13 73.42 95.48 73.34 93.91 Z" />
<path fill="#757575" d=" M 125.35 93.75 C 125.54 95.33 125.93 98.49 126.13 100.07 C 127.51 97.92 127.31 93.74 128.59 99.08 C 126.51 103.19 131.68 101.62 130.36 105.35 C 125.62 105.04 120.02 101.39 123.55 94.80 C 123.90 99.61 125.82 97.28 125.35 93.75 Z" />
<path fill="#a6a6a6" d=" M 13.06 99.12 C 19.53 98.89 26.06 98.85 32.27 96.77 C 32.63 96.80 33.35 96.85 33.71 96.87 C 39.32 102.50 49.47 97.11 54.16 103.13 C 49.65 102.00 45.32 99.73 40.59 101.99 C 36.82 102.81 33.11 103.87 29.37 104.81 C 23.06 102.79 16.23 104.54 9.74 104.00 C 11.75 99.21 20.05 103.56 24.09 101.97 C 23.30 97.70 11.89 104.82 13.06 99.12 Z" />
<path fill="#dadada" d=" M 184.47 100.25 C 196.50 97.96 208.69 96.19 220.99 97.01 C 224.37 96.38 229.65 97.88 230.13 101.91 C 224.63 100.83 219.83 104.77 214.81 106.06 C 219.96 105.81 225.06 104.93 230.17 104.33 C 230.88 104.23 232.30 104.05 233.01 103.96 C 230.78 108.24 226.05 111.66 225.98 116.84 C 228.44 118.26 237.98 117.10 233.10 119.15 C 228.31 120.07 235.17 124.19 231.63 126.51 C 225.84 125.60 224.95 130.72 223.54 134.60 C 220.68 140.54 212.91 137.23 207.63 138.23 C 199.79 135.28 193.08 129.22 184.38 128.66 C 180.25 127.67 176.08 125.97 174.17 121.87 L 173.84 121.05 C 174.15 119.95 174.52 118.87 174.96 117.82 C 185.82 120.08 197.06 122.26 207.91 118.78 C 205.62 113.98 195.18 116.87 190.21 117.27 C 186.81 116.57 183.60 115.25 180.31 114.17 C 178.80 113.22 177.32 112.23 175.81 111.28 C 170.05 102.70 187.60 111.01 190.27 104.22 C 186.97 103.73 181.49 105.53 181.01 100.73 C 182.17 100.61 183.32 100.45 184.47 100.25 Z" />
<path fill="#656565" d=" M 70.76 101.82 C 71.45 100.98 72.10 100.09 72.90 99.35 C 73.88 102.39 78.40 101.29 78.29 104.87 C 75.23 105.63 72.90 103.67 70.76 101.82 Z" />
<path fill="#5d5d5d" d=" M 171.41 99.21 C 174.64 99.51 177.84 99.97 181.01 100.73 C 179.02 101.07 177.20 101.94 175.49 102.98 C 173.70 103.54 171.89 104.05 170.08 104.50 C 169.03 103.44 165.66 104.62 166.50 102.58 C 166.19 98.17 170.02 103.92 171.41 99.21 Z" />
<path fill="#737373" d=" M 130.36 105.35 C 133.52 104.74 135.65 97.09 137.14 103.03 C 135.28 109.81 125.44 105.78 124.10 112.16 C 123.38 110.85 122.74 109.49 122.10 108.14 C 124.89 107.34 127.68 106.50 130.36 105.35 Z" />
<path fill="#b1b1b1" d=" M 175.49 102.98 C 177.20 101.94 179.02 101.07 181.01 100.73 C 181.49 105.53 186.97 103.73 190.27 104.22 C 187.60 111.01 170.05 102.70 175.81 111.28 C 172.91 110.75 170.44 108.32 173.01 105.60 C 176.08 105.79 179.17 106.10 182.26 105.96 C 180.07 104.80 177.59 104.31 175.49 102.98 Z" />
<path fill="#bebebe" d=" M 233.01 103.96 C 235.16 104.08 243.88 98.43 239.81 104.00 C 238.03 108.31 247.32 110.34 246.47 115.41 C 244.28 119.66 239.14 120.89 235.73 123.89 C 237.54 125.43 239.49 126.79 241.37 128.24 C 236.55 127.48 236.23 129.72 240.87 131.15 C 240.33 136.67 236.71 129.16 233.14 130.16 C 235.62 137.93 223.75 136.39 219.75 140.84 C 216.06 139.50 212.14 139.21 208.27 138.77 L 207.63 138.23 C 212.91 137.23 220.68 140.54 223.54 134.60 C 224.95 130.72 225.84 125.60 231.63 126.51 C 235.17 124.19 228.31 120.07 233.10 119.15 C 237.98 117.10 228.44 118.26 225.98 116.84 C 226.05 111.66 230.78 108.24 233.01 103.96 Z" />
<path fill="#e4e4e4" d=" M 29.37 104.81 C 33.11 103.87 36.82 102.81 40.59 101.99 C 45.23 108.28 57.85 102.33 59.94 110.66 C 56.88 111.90 52.85 111.88 50.86 114.89 C 54.59 116.83 59.45 113.62 62.72 116.06 C 61.88 118.34 61.01 120.64 61.01 123.12 C 54.49 126.25 47.26 128.11 40.32 130.27 C 35.52 130.66 29.07 133.48 25.82 128.22 C 20.83 127.16 16.96 123.12 13.10 120.00 C 16.90 117.29 12.40 113.41 17.27 110.14 C 19.85 108.72 22.44 107.28 25.22 106.28 C 26.62 105.83 28.00 105.32 29.37 104.81 Z" />
<path fill="#b4b4b4" d=" M 59.42 103.49 C 70.78 107.75 57.64 100.25 64.65 102.11 C 66.12 104.99 71.18 103.54 66.16 106.21 C 68.37 108.15 69.22 110.56 67.02 112.95 C 65.83 112.82 62.51 113.47 64.96 111.91 C 72.06 107.73 54.29 104.69 59.42 103.49 Z" />
<path fill="#707070" d=" M 64.65 102.11 C 65.19 102.12 66.27 102.14 66.81 102.15 C 70.96 103.38 73.28 107.31 77.51 108.52 C 79.58 112.11 70.46 105.02 70.73 109.81 C 68.81 114.96 78.22 107.82 79.09 112.94 C 76.49 113.78 73.55 113.03 71.20 114.65 C 70.07 113.51 68.59 113.04 67.02 112.95 C 69.22 110.56 68.37 108.15 66.16 106.21 C 71.18 103.54 66.12 104.99 64.65 102.11 Z" />
<path fill="#565656" d=" M 137.14 103.03 C 139.57 105.93 139.00 111.79 133.15 111.16 C 136.71 114.62 132.20 112.27 130.26 110.87 C 132.22 115.46 128.87 113.24 126.28 111.85 C 127.73 115.89 125.77 114.96 124.10 112.16 C 125.44 105.78 135.28 109.81 137.14 103.03 Z" />
<path fill="#888888" d=" M 170.08 104.50 C 171.89 104.05 173.70 103.54 175.49 102.98 C 177.59 104.31 180.07 104.80 182.26 105.96 C 179.17 106.10 176.08 105.79 173.01 105.60 C 172.50 105.42 171.48 105.05 170.96 104.86 L 170.08 104.50 Z" />
<path fill="#9c9c9c" d=" M 2.74 105.14 C 10.26 104.54 17.77 105.28 25.22 106.28 C 22.44 107.28 19.85 108.72 17.27 110.14 L 16.37 109.73 C 12.18 107.13 6.66 108.30 2.74 105.14 Z" />
<path fill="#515151" d=" M 170.96 104.86 C 171.48 105.05 172.50 105.42 173.01 105.60 C 170.44 108.32 172.91 110.75 175.81 111.28 C 177.32 112.23 178.80 113.22 180.31 114.17 C 176.52 115.44 172.65 116.49 168.84 117.69 C 166.81 117.27 165.60 115.78 164.91 113.91 C 166.54 114.72 168.10 115.66 169.80 116.32 C 170.06 112.26 162.78 113.84 166.02 110.23 C 167.81 110.64 170.07 112.85 171.12 110.28 C 169.82 109.96 166.38 110.06 169.30 108.90 C 171.80 109.27 170.68 106.35 170.96 104.86 Z" />
<path fill="#0b0b0b" d=" M 0.00 106.76 C 3.74 108.67 7.52 110.48 11.42 112.05 C 8.17 113.91 5.02 115.92 1.92 118.02 C 1.44 118.33 0.48 118.94 0.00 119.25 L 0.00 106.76 Z" />
<path fill="#c3c3c3" d=" M 11.42 112.05 C 13.06 111.25 14.68 110.42 16.37 109.73 L 17.27 110.14 C 12.40 113.41 16.90 117.29 13.10 120.00 C 16.96 123.12 20.83 127.16 25.82 128.22 C 29.07 133.48 35.52 130.66 40.32 130.27 C 47.26 128.11 54.49 126.25 61.01 123.12 C 62.43 121.95 63.60 120.53 64.96 119.30 C 67.14 119.60 72.26 121.39 67.77 122.79 C 63.42 124.94 69.85 123.09 71.66 123.04 C 72.89 127.12 68.82 128.84 66.09 130.98 C 64.35 131.48 62.60 131.99 60.86 132.49 C 56.33 133.10 52.00 134.64 48.12 137.05 C 44.52 137.95 40.92 138.88 37.23 139.34 C 33.14 139.25 28.96 139.17 25.08 137.75 C 24.24 134.78 27.82 134.78 29.40 133.22 C 25.90 133.01 22.41 133.00 18.91 133.03 C 16.96 130.06 17.16 125.20 11.87 126.31 C 14.89 123.22 2.43 125.33 3.49 123.37 C 5.69 121.85 8.02 120.53 10.16 118.94 C 7.17 118.55 0.96 123.59 1.92 118.02 C 5.02 115.92 8.17 113.91 11.42 112.05 Z" />
<path fill="#8c8c8c" d=" M 180.31 114.17 C 183.60 115.25 186.81 116.57 190.21 117.27 C 187.43 122.19 178.97 112.47 174.96 117.82 C 174.52 118.87 174.15 119.95 173.84 121.05 C 173.32 120.39 172.76 119.78 172.15 119.21 C 171.07 118.65 169.96 118.14 168.84 117.69 C 172.65 116.49 176.52 115.44 180.31 114.17 Z" />
<path fill="#696969" d=" M 75.59 115.56 C 77.98 114.69 83.90 119.14 74.46 117.37 C 70.50 118.63 72.81 122.47 74.21 124.85 C 76.20 123.50 81.10 122.59 81.10 125.95 C 79.48 125.79 75.62 123.94 78.01 126.71 C 71.60 127.08 74.71 132.41 79.43 128.84 C 82.53 128.96 79.27 130.54 78.40 131.59 C 80.34 132.18 78.63 133.63 78.16 134.72 C 76.12 138.75 77.85 130.65 76.00 133.95 C 74.75 135.41 73.43 136.81 72.02 138.12 C 71.48 137.91 70.40 137.50 69.86 137.29 C 73.67 135.55 74.09 132.28 71.80 129.07 C 69.83 129.49 67.97 130.27 66.09 130.98 C 68.82 128.84 72.89 127.12 71.66 123.04 C 69.85 123.09 63.42 124.94 67.77 122.79 C 72.26 121.39 67.14 119.60 64.96 119.30 C 65.85 118.54 66.78 117.84 67.74 117.17 C 70.18 121.11 72.60 115.96 75.59 115.56 Z" />
<path fill="#868686" d=" M 99.23 115.26 C 104.65 113.05 98.84 120.14 99.23 115.26 Z" />
<path fill="#b7b7b7" d=" M 174.96 117.82 C 178.97 112.47 187.43 122.19 190.21 117.27 C 195.18 116.87 205.62 113.98 207.91 118.78 C 197.06 122.26 185.82 120.08 174.96 117.82 Z" />
<path fill="#676767" d=" M 131.96 116.88 C 132.82 118.19 134.12 119.81 134.36 117.14 C 138.52 115.77 138.31 125.00 135.29 121.94 C 137.19 118.19 129.80 121.72 131.96 116.88 Z" />
<path fill="#868686" d=" M 0.00 119.25 C 0.48 118.94 1.44 118.33 1.92 118.02 C 0.96 123.59 7.17 118.55 10.16 118.94 C 8.02 120.53 5.69 121.85 3.49 123.37 C 2.43 125.33 14.89 123.22 11.87 126.31 C 2.35 123.23 5.60 127.66 8.33 131.80 C 5.46 131.05 2.72 129.93 0.00 128.78 L 0.00 119.25 Z" />
<path fill="#686868" d=" M 74.33 119.30 C 75.95 118.58 78.05 118.58 79.67 119.30 C 79.01 120.66 74.99 120.66 74.33 119.30 Z" />
<path fill="#555555" d=" M 172.15 119.21 C 172.76 119.78 173.32 120.39 173.84 121.05 L 174.17 121.87 C 173.51 122.46 172.85 123.05 172.19 123.64 C 168.47 121.68 166.55 120.13 172.15 119.21 Z" />
<path fill="#5c5c5c" d=" M 109.37 122.12 C 111.40 122.17 113.41 122.64 115.22 123.58 C 111.08 123.04 110.64 125.72 111.39 129.04 C 114.31 126.57 117.94 129.49 121.06 126.40 C 124.00 129.45 128.19 127.04 131.49 130.11 C 129.70 130.14 127.91 130.03 126.13 129.97 C 129.40 131.72 125.05 134.45 127.84 136.32 C 125.43 135.59 122.99 134.46 122.11 131.91 C 122.89 137.97 119.92 134.85 118.65 131.21 C 116.35 136.38 110.53 131.34 106.83 130.32 C 111.85 130.35 109.06 127.85 105.86 128.41 C 107.62 126.64 110.17 125.00 109.37 122.12 Z" />
<path fill="#828282" d=" M 174.17 121.87 C 176.08 125.97 180.25 127.67 184.38 128.66 C 186.26 132.19 182.81 133.57 179.75 133.36 C 176.68 133.09 171.85 130.26 171.36 135.03 C 174.35 136.75 177.48 138.25 180.35 140.19 C 178.41 141.37 176.67 140.13 174.96 139.20 C 172.87 141.33 177.89 141.49 176.72 143.92 C 176.33 143.67 175.55 143.16 175.16 142.90 C 173.85 142.03 172.49 141.24 171.14 140.45 C 171.71 136.33 166.45 134.32 163.05 133.65 C 165.55 130.67 161.16 127.94 166.84 129.85 C 166.41 123.16 168.23 129.47 172.04 129.15 C 171.05 127.36 169.84 125.70 168.86 123.90 C 171.77 125.29 173.43 129.10 177.21 128.02 C 175.72 126.36 173.94 125.00 172.19 123.64 C 172.85 123.05 173.51 122.46 174.17 121.87 Z" />
<path fill="#a4a4a4" d=" M 8.33 131.80 C 5.60 127.66 2.35 123.23 11.87 126.31 C 17.16 125.20 16.96 130.06 18.91 133.03 C 17.26 133.03 15.60 133.06 13.95 133.09 C 12.05 132.76 10.18 132.33 8.33 131.80 Z" />
<path fill="#bbbbbb" d=" M 79.43 128.84 C 74.71 132.41 71.60 127.08 78.01 126.71 C 78.36 127.24 79.08 128.31 79.43 128.84 Z" />
<path fill="#959595" d=" M 240.87 131.15 C 236.23 129.72 236.55 127.48 241.37 128.24 C 242.63 129.12 243.87 130.04 245.08 131.00 C 245.09 134.31 244.16 135.53 248.17 137.10 C 247.93 137.38 247.47 137.93 247.24 138.21 C 245.02 136.78 242.78 134.77 239.71 135.99 C 241.48 136.96 244.59 137.59 243.45 140.29 C 242.43 140.73 241.38 141.09 240.30 141.37 C 235.46 141.19 230.63 141.03 225.79 141.18 C 224.07 141.14 222.36 141.15 220.65 141.12 L 219.75 140.84 C 223.75 136.39 235.62 137.93 233.14 130.16 C 236.71 129.16 240.33 136.67 240.87 131.15 Z" />
<path fill="#363636" d=" M 0.00 128.78 C 2.72 129.93 5.46 131.05 8.33 131.80 C 10.18 132.33 12.05 132.76 13.95 133.09 C 12.49 135.86 13.63 137.97 16.38 139.17 C 10.59 138.14 5.14 135.68 0.00 132.88 L 0.00 128.78 Z" />
<path fill="#c5c5c5" d=" M 66.09 130.98 C 67.97 130.27 69.83 129.49 71.80 129.07 C 74.09 132.28 73.67 135.55 69.86 137.29 C 63.41 143.48 53.97 143.36 45.75 144.36 C 49.60 142.13 53.48 139.97 57.27 137.65 C 60.51 136.01 64.81 134.65 66.09 130.98 Z" />
<path fill="#929292" d=" M 184.38 128.66 C 193.08 129.22 199.79 135.28 207.63 138.23 L 208.27 138.77 C 206.73 139.04 204.05 138.51 205.05 140.94 C 207.32 145.51 214.19 144.76 217.44 148.54 C 218.57 150.11 222.20 151.59 219.62 153.48 C 220.17 156.42 224.79 162.03 218.81 161.25 C 218.40 161.09 217.58 160.77 217.17 160.61 C 216.89 160.49 216.33 160.25 216.05 160.13 C 217.49 156.14 212.88 153.14 210.68 150.34 C 201.84 143.26 191.96 137.02 181.02 133.81 C 180.70 133.70 180.07 133.47 179.75 133.36 C 182.81 133.57 186.26 132.19 184.38 128.66 Z" />
<path fill="#4f4f4f" d=" M 60.86 132.49 C 62.60 131.99 64.35 131.48 66.09 130.98 C 64.81 134.65 60.51 136.01 57.27 137.65 C 54.69 137.37 52.35 138.73 49.85 139.11 C 51.08 133.60 62.56 136.22 60.86 132.49 Z" />
<path fill="#575757" d=" M 245.08 131.00 C 247.15 132.31 248.13 134.72 248.17 137.10 C 244.16 135.53 245.09 134.31 245.08 131.00 Z" />
<path fill="#5b5b5b" d=" M 158.17 131.89 C 159.80 132.47 161.39 133.16 163.05 133.65 C 166.45 134.32 171.71 136.33 171.14 140.45 C 169.11 139.97 167.10 139.45 165.08 138.97 C 170.17 143.73 159.75 144.15 156.57 142.52 C 154.70 141.05 155.55 144.23 155.15 145.24 C 152.64 147.09 147.70 139.91 152.66 142.39 C 156.88 143.96 150.62 138.10 152.57 138.43 C 156.07 140.61 161.09 135.25 158.17 131.89 Z" />
<path fill="#cfcfcf" d=" M 171.36 135.03 C 171.85 130.26 176.68 133.09 179.75 133.36 C 180.07 133.47 180.70 133.70 181.02 133.81 C 183.07 140.28 191.65 139.79 196.07 143.90 C 200.27 147.90 206.15 151.68 206.87 157.97 C 205.51 157.76 204.17 157.43 202.83 157.12 C 201.51 156.60 200.20 156.06 198.83 155.69 C 192.80 155.53 190.28 149.17 186.02 145.84 C 184.36 143.75 182.81 141.42 180.35 140.19 C 177.48 138.25 174.35 136.75 171.36 135.03 Z" />
<path fill="#020202" d=" M 0.00 132.88 C 5.14 135.68 10.59 138.14 16.38 139.17 C 13.21 141.47 8.79 143.65 11.13 148.71 C 17.76 152.81 26.03 150.35 33.23 149.41 C 33.71 149.47 34.67 149.58 35.15 149.64 C 33.86 150.74 32.65 151.94 31.46 153.14 C 26.69 156.94 24.83 162.91 21.75 167.96 C 18.64 172.62 19.30 182.33 26.20 182.50 C 29.24 182.57 32.30 182.07 35.24 181.29 C 37.30 181.13 39.24 180.36 40.95 179.21 C 41.85 178.74 42.74 178.26 43.64 177.78 C 43.29 179.98 44.11 181.99 44.98 183.95 C 42.90 187.12 41.17 190.52 39.66 194.00 L 0.00 194.00 L 0.00 132.88 Z" />
<path fill="#5c5c5c" d=" M 13.95 133.09 C 15.60 133.06 17.26 133.03 18.91 133.03 C 23.29 135.00 15.86 135.73 18.90 138.94 C 18.50 138.98 17.69 139.06 17.28 139.09 L 16.38 139.17 C 13.63 137.97 12.49 135.86 13.95 133.09 Z" />
<path fill="#8a8a8a" d=" M 18.91 133.03 C 22.41 133.00 25.90 133.01 29.40 133.22 C 27.82 134.78 24.24 134.78 25.08 137.75 C 28.96 139.17 33.14 139.25 37.23 139.34 C 31.12 140.52 24.95 140.08 18.90 138.94 C 15.86 135.73 23.29 135.00 18.91 133.03 Z" />
<path fill="#242424" d=" M 48.12 137.05 C 52.00 134.64 56.33 133.10 60.86 132.49 C 62.56 136.22 51.08 133.60 49.85 139.11 C 52.35 138.73 54.69 137.37 57.27 137.65 C 53.48 139.97 49.60 142.13 45.75 144.36 C 44.21 144.94 42.68 145.57 41.17 146.23 C 42.56 142.52 44.77 139.25 48.12 137.05 Z" />
<path fill="#a8a8a8" d=" M 76.00 133.95 C 77.85 130.65 76.12 138.75 78.16 134.72 L 78.92 134.60 C 77.85 137.93 83.35 137.62 80.68 139.91 C 78.58 138.64 76.31 139.32 74.15 140.00 C 75.32 138.17 76.08 136.15 76.00 133.95 Z" />
<path fill="#dbdbdb" d=" M 72.02 138.12 C 73.43 136.81 74.75 135.41 76.00 133.95 C 76.08 136.15 75.32 138.17 74.15 140.00 C 76.31 139.32 78.58 138.64 80.68 139.91 C 80.61 141.30 80.41 142.69 79.96 144.02 C 74.46 146.95 69.54 151.10 65.90 156.16 C 71.21 154.45 74.76 148.66 80.63 148.76 C 81.99 148.54 83.85 149.03 84.27 147.25 C 84.71 147.07 85.60 146.71 86.04 146.53 C 86.82 148.23 83.98 149.44 85.84 151.16 C 89.75 155.65 80.50 158.63 84.21 163.22 C 83.04 164.95 81.77 166.62 80.38 168.18 C 74.37 166.65 71.26 172.92 67.11 176.05 C 61.39 177.03 65.30 172.01 67.25 169.95 C 63.63 171.75 60.62 174.48 57.34 176.79 C 56.67 175.09 56.00 173.39 55.24 171.74 C 58.09 167.50 56.31 168.11 53.19 170.93 C 49.09 169.55 46.49 174.96 42.36 175.16 C 42.53 172.85 44.48 168.93 38.14 171.80 C 34.52 171.04 33.93 166.66 32.81 163.73 C 34.61 161.87 36.37 160.00 38.13 158.11 C 48.14 148.93 63.37 149.15 72.02 138.12 Z" />
<path fill="#696969" d=" M 78.92 134.60 C 81.86 133.43 88.30 135.81 81.79 136.35 C 84.50 139.06 91.11 138.05 84.77 139.56 C 79.00 142.39 86.86 142.81 84.27 147.25 C 82.81 146.20 81.36 145.13 79.96 144.02 C 80.41 142.69 80.61 141.30 80.68 139.91 C 83.35 137.62 77.85 137.93 78.92 134.60 Z" />
<path fill="#aeaeae" d=" M 181.02 133.81 C 191.96 137.02 201.84 143.26 210.68 150.34 C 212.88 153.14 217.49 156.14 216.05 160.13 C 212.30 160.01 208.57 159.76 204.88 159.10 C 204.20 158.43 203.51 157.77 202.83 157.12 C 204.17 157.43 205.51 157.76 206.87 157.97 C 206.15 151.68 200.27 147.90 196.07 143.90 C 191.65 139.79 183.07 140.28 181.02 133.81 Z" />
<path fill="#747474" d=" M 145.21 136.20 C 148.86 138.96 141.64 139.13 145.21 136.20 Z" />
<path fill="#666666" d=" M 239.71 135.99 C 242.78 134.77 245.02 136.78 247.24 138.21 C 246.07 139.07 244.77 139.71 243.45 140.29 C 244.59 137.59 241.48 136.96 239.71 135.99 Z" />
<path fill="#3b3b3b" d=" M 37.23 139.34 C 40.92 138.88 44.52 137.95 48.12 137.05 C 44.77 139.25 42.56 142.52 41.17 146.23 C 39.19 147.42 37.18 148.54 35.15 149.64 C 34.67 149.58 33.71 149.47 33.23 149.41 C 27.12 148.14 14.82 148.42 17.28 139.09 C 17.69 139.06 18.50 138.98 18.90 138.94 C 24.95 140.08 31.12 140.52 37.23 139.34 Z" />
<path fill="#a1a1a1" d=" M 45.75 144.36 C 53.97 143.36 63.41 143.48 69.86 137.29 C 70.40 137.50 71.48 137.91 72.02 138.12 C 63.37 149.15 48.14 148.93 38.13 158.11 C 41.00 152.57 35.24 153.03 31.46 153.14 C 32.65 151.94 33.86 150.74 35.15 149.64 C 37.18 148.54 39.19 147.42 41.17 146.23 C 42.68 145.57 44.21 144.94 45.75 144.36 Z" />
<path fill="#262626" d=" M 16.38 139.17 L 17.28 139.09 C 14.82 148.42 27.12 148.14 33.23 149.41 C 26.03 150.35 17.76 152.81 11.13 148.71 C 8.79 143.65 13.21 141.47 16.38 139.17 Z" />
<path fill="#b0b0b0" d=" M 165.08 138.97 C 167.10 139.45 169.11 139.97 171.14 140.45 C 172.49 141.24 173.85 142.03 175.16 142.90 C 171.35 144.82 164.48 140.85 169.20 146.92 C 164.78 142.12 159.45 145.62 155.72 149.36 C 155.55 149.05 155.19 148.42 155.02 148.10 C 155.05 147.39 155.11 145.96 155.15 145.24 C 155.55 144.23 154.70 141.05 156.57 142.52 C 159.75 144.15 170.17 143.73 165.08 138.97 Z" />
<path fill="#b4b4b4" d=" M 174.96 139.20 C 176.67 140.13 178.41 141.37 180.35 140.19 C 182.81 141.42 184.36 143.75 186.02 145.84 C 187.88 153.24 195.78 156.86 199.98 162.92 C 191.92 157.42 181.52 151.81 176.72 143.92 C 177.89 141.49 172.87 141.33 174.96 139.20 Z" />
<path fill="#727272" d=" M 205.05 140.94 C 204.05 138.51 206.73 139.04 208.27 138.77 C 212.14 139.21 216.06 139.50 219.75 140.84 L 220.65 141.12 C 226.10 143.88 231.20 147.25 236.13 150.84 C 239.00 155.69 233.78 152.69 231.21 151.72 C 227.58 149.77 223.87 147.81 219.81 146.95 C 222.40 150.63 227.21 151.66 230.24 154.91 C 227.77 154.93 225.37 154.36 222.95 153.99 C 223.56 156.90 226.36 157.60 228.84 158.37 C 229.48 161.44 221.41 162.63 225.88 163.01 C 231.08 169.08 221.31 163.15 218.81 161.25 C 224.79 162.03 220.17 156.42 219.62 153.48 C 222.20 151.59 218.57 150.11 217.44 148.54 C 214.19 144.76 207.32 145.51 205.05 140.94 Z" />
<path fill="#4a4a4a" d=" M 225.79 141.18 C 230.63 141.03 235.46 141.19 240.30 141.37 C 235.60 142.89 230.55 141.67 225.79 141.18 Z" />
<path fill="#606060" d=" M 146.27 144.04 C 150.55 140.62 150.99 150.03 155.02 148.10 C 155.19 148.42 155.55 149.05 155.72 149.36 C 156.88 151.72 158.13 154.02 159.28 156.39 C 155.52 154.62 150.35 150.21 149.09 157.09 C 146.54 154.36 147.09 158.28 146.74 160.20 C 145.48 159.12 144.44 157.78 143.81 156.24 C 144.72 154.56 145.90 153.08 147.81 152.52 C 145.21 149.80 148.96 147.08 146.27 144.04 Z" />
<path fill="#dedede" d=" M 169.20 146.92 C 164.48 140.85 171.35 144.82 175.16 142.90 C 175.55 143.16 176.33 143.67 176.72 143.92 C 181.52 151.81 191.92 157.42 199.98 162.92 C 202.11 166.93 207.43 172.01 203.37 176.39 C 201.11 177.54 202.84 180.21 202.87 182.10 C 196.49 177.08 189.39 172.72 181.92 169.83 C 183.37 172.37 189.98 177.21 184.43 178.54 C 183.27 179.77 183.05 181.52 182.64 183.09 C 181.91 182.42 181.17 181.76 180.41 181.12 C 176.84 177.94 173.29 174.75 169.76 171.52 C 164.58 167.73 161.31 162.38 159.28 156.39 C 158.13 154.02 156.88 151.72 155.72 149.36 C 159.45 145.62 164.78 142.12 169.20 146.92 Z" />
<path fill="#adadad" d=" M 65.90 156.16 C 69.54 151.10 74.46 146.95 79.96 144.02 C 81.36 145.13 82.81 146.20 84.27 147.25 C 83.85 149.03 81.99 148.54 80.63 148.76 C 74.76 148.66 71.21 154.45 65.90 156.16 Z" />
<path fill="#b1b1b1" d=" M 86.04 146.53 C 87.92 145.84 91.63 143.95 88.89 147.08 C 87.67 149.28 87.51 154.80 91.25 153.47 C 90.29 157.47 86.51 159.95 84.21 163.22 C 80.50 158.63 89.75 155.65 85.84 151.16 C 83.98 149.44 86.82 148.23 86.04 146.53 Z" />
<path fill="#939393" d=" M 186.02 145.84 C 190.28 149.17 192.80 155.53 198.83 155.69 C 199.21 159.27 204.47 161.13 206.79 164.06 C 210.80 168.33 213.93 173.33 216.30 178.68 C 215.52 180.14 214.72 181.59 214.00 183.08 C 213.54 181.74 212.62 179.08 212.16 177.74 C 209.60 172.01 206.45 165.05 199.98 162.92 C 195.78 156.86 187.88 153.24 186.02 145.84 Z" />
<path fill="#5a5a5a" d=" M 91.25 153.47 C 87.51 154.80 87.67 149.28 88.89 147.08 C 90.09 150.74 94.84 150.37 95.58 154.08 C 96.73 151.93 96.04 149.26 97.12 147.17 C 102.84 148.05 96.90 154.75 94.85 157.22 C 96.04 153.54 92.16 155.41 91.24 157.28 C 88.72 161.88 83.68 166.64 84.61 172.24 C 82.65 175.11 81.79 178.44 81.40 181.88 C 80.57 184.12 78.92 185.89 76.90 187.13 C 78.89 182.60 81.37 178.20 81.96 173.21 C 80.40 173.24 78.73 173.36 77.92 174.92 C 72.01 182.57 64.47 188.67 56.48 194.00 L 39.66 194.00 C 41.17 190.52 42.90 187.12 44.98 183.95 C 44.22 188.06 49.37 188.08 47.41 192.22 C 49.88 191.86 53.76 188.34 53.35 193.01 C 59.66 191.39 61.34 182.87 68.26 182.18 C 72.65 178.36 77.75 174.54 80.03 168.96 L 80.38 168.18 C 81.77 166.62 83.04 164.95 84.21 163.22 C 86.51 159.95 90.29 157.47 91.25 153.47 Z" />
<path fill="#6b6b6b" d=" M 141.36 152.95 C 141.56 150.35 142.65 148.04 145.10 146.85 C 144.31 149.43 143.45 151.99 143.00 154.66 C 141.91 155.20 140.83 155.76 139.75 156.32 C 138.24 153.80 136.54 149.48 139.85 147.79 C 139.82 149.87 137.58 154.13 141.36 152.95 Z" />
<path fill="#565656" d=" M 219.81 146.95 C 223.87 147.81 227.58 149.77 231.21 151.72 C 232.15 153.92 234.02 156.89 230.06 156.14 C 231.72 157.42 233.34 158.82 234.27 160.76 C 233.14 161.20 231.43 161.29 231.45 162.88 C 231.26 166.34 227.88 162.55 225.88 163.01 C 221.41 162.63 229.48 161.44 228.84 158.37 C 226.36 157.60 223.56 156.90 222.95 153.99 C 225.37 154.36 227.77 154.93 230.24 154.91 C 227.21 151.66 222.40 150.63 219.81 146.95 Z" />
<path fill="#6b6b6b" d=" M 131.92 159.52 C 133.82 156.71 131.94 151.84 136.02 150.94 C 135.70 153.29 135.14 155.60 134.82 157.96 C 138.90 153.97 135.89 159.33 135.07 161.80 C 138.25 163.64 139.68 162.03 139.83 158.73 C 139.84 161.49 139.86 164.26 139.89 167.03 C 138.02 165.97 136.00 165.18 133.95 164.53 C 134.09 162.55 133.68 160.67 131.92 159.52 Z" />
<path fill="#343434" d=" M 236.13 150.84 C 238.97 153.18 243.61 154.29 245.00 157.82 C 241.56 159.25 237.92 160.11 234.27 160.76 C 233.34 158.82 231.72 157.42 230.06 156.14 C 234.02 156.89 232.15 153.92 231.21 151.72 C 233.78 152.69 239.00 155.69 236.13 150.84 Z" />
<path fill="#414141" d=" M 103.92 154.11 C 110.07 151.37 116.52 154.06 119.00 160.12 C 116.39 160.92 113.73 156.96 111.80 159.61 C 111.40 159.97 110.58 160.67 110.17 161.02 C 108.00 160.72 105.65 160.52 105.03 158.01 C 104.62 156.72 104.24 155.42 103.92 154.11 Z" />
<path fill="#7b7b7b" d=" M 21.75 167.96 C 24.83 162.91 26.69 156.94 31.46 153.14 C 35.24 153.03 41.00 152.57 38.13 158.11 C 36.37 160.00 34.61 161.87 32.81 163.73 L 31.98 163.89 C 32.15 162.64 33.44 160.99 31.84 160.20 C 27.96 160.36 25.49 173.51 21.75 167.96 Z" />
<path fill="#4e4e4e" d=" M 129.00 154.01 C 132.63 152.23 129.02 157.99 127.85 159.20 C 127.17 158.50 126.49 157.81 125.81 157.13 C 123.31 152.11 126.72 157.32 129.00 154.01 Z" />
<path fill="#acacac" d=" M 149.09 157.09 C 150.35 150.21 155.52 154.62 159.28 156.39 C 161.31 162.38 164.58 167.73 169.76 171.52 C 169.08 174.88 173.40 176.69 173.08 180.12 C 166.38 172.05 160.15 163.62 153.72 155.34 C 149.59 155.19 152.62 158.89 153.04 161.18 C 151.50 160.04 150.20 158.63 149.09 157.09 Z" />
<path fill="#a6a6a6" d=" M 100.26 157.64 C 101.42 156.40 102.61 155.18 103.92 154.11 C 104.24 155.42 104.62 156.72 105.03 158.01 C 104.79 160.72 104.20 163.38 103.90 166.07 C 105.45 164.67 106.54 161.46 109.10 162.77 C 104.19 166.83 102.46 172.69 101.71 178.81 C 99.48 191.43 100.56 176.42 99.32 172.65 C 96.48 167.68 101.05 162.69 100.26 157.64 Z" />
<path fill="#aaaaaa" d=" M 91.24 157.28 C 92.16 155.41 96.04 153.54 94.85 157.22 C 91.11 162.00 88.17 167.33 84.61 172.24 C 83.68 166.64 88.72 161.88 91.24 157.28 Z" />
<path fill="#cacaca" d=" M 139.75 156.32 C 140.83 155.76 141.91 155.20 143.00 154.66 C 143.20 155.06 143.60 155.85 143.81 156.24 C 144.44 157.78 145.48 159.12 146.74 160.20 C 147.09 158.28 146.54 154.36 149.09 157.09 C 150.20 158.63 151.50 160.04 153.04 161.18 C 152.62 158.89 149.59 155.19 153.72 155.34 C 160.15 163.62 166.38 172.05 173.08 180.12 C 173.63 183.11 173.72 186.15 173.90 189.19 C 171.19 182.69 167.18 174.97 160.91 171.92 C 162.90 179.39 167.27 186.20 168.29 194.00 L 146.64 194.00 C 147.07 193.58 147.94 192.74 148.37 192.32 C 151.54 191.36 150.85 187.74 151.26 185.02 C 155.12 184.93 154.20 191.45 157.87 192.31 C 154.22 181.13 148.70 170.74 144.24 159.83 C 142.82 159.29 141.30 159.09 139.83 158.73 C 139.81 158.13 139.77 156.92 139.75 156.32 Z" />
<path fill="#878787" d=" M 121.18 155.91 C 122.50 158.36 124.01 160.69 125.38 163.11 C 120.60 163.83 115.65 162.54 111.80 159.61 C 113.73 156.96 116.39 160.92 119.00 160.12 C 121.77 160.78 120.75 157.56 121.18 155.91 Z" />
<path fill="#2e2e2e" d=" M 206.79 164.06 C 204.47 161.13 199.21 159.27 198.83 155.69 C 200.20 156.06 201.51 156.60 202.83 157.12 C 203.51 157.77 204.20 158.43 204.88 159.10 C 205.95 160.33 207.00 161.59 208.05 162.85 C 207.74 163.15 207.11 163.75 206.79 164.06 Z" />
<path fill="#444444" d=" M 84.61 172.24 C 88.17 167.33 91.11 162.00 94.85 157.22 C 96.65 157.43 98.46 157.52 100.26 157.64 C 94.61 162.45 92.64 169.51 89.97 176.07 C 86.62 181.55 83.26 187.27 83.84 194.00 L 75.41 194.00 C 77.46 190.21 85.48 186.09 81.40 181.88 C 81.79 178.44 82.65 175.11 84.61 172.24 Z" />
<path fill="#878787" d=" M 125.81 157.13 C 126.49 157.81 127.17 158.50 127.85 159.20 C 128.10 161.67 127.90 164.36 129.72 166.27 C 129.50 167.89 129.18 169.49 128.82 171.09 C 127.22 168.65 126.16 165.91 125.38 163.11 C 125.59 161.12 125.71 159.12 125.81 157.13 Z" />
<path fill="#d4d4d4" d=" M 100.26 157.64 C 101.05 162.69 96.48 167.68 99.32 172.65 C 100.56 176.42 99.48 191.43 101.71 178.81 C 101.80 182.05 103.30 188.22 107.05 184.09 C 108.12 186.62 108.55 189.36 109.23 192.00 C 111.76 188.52 117.34 187.44 117.57 182.57 C 119.93 175.49 119.16 162.54 109.10 162.77 C 109.37 162.33 109.90 161.46 110.17 161.02 C 110.58 160.67 111.40 159.97 111.80 159.61 C 115.65 162.54 120.60 163.83 125.38 163.11 C 126.16 165.91 127.22 168.65 128.82 171.09 C 129.18 169.49 129.50 167.89 129.72 166.27 C 130.17 163.93 130.94 161.68 131.92 159.52 C 133.68 160.67 134.09 162.55 133.95 164.53 C 131.60 171.98 134.42 179.42 135.28 186.80 C 134.94 189.20 134.57 191.60 134.15 194.00 L 128.76 194.00 C 130.57 188.59 126.41 188.61 128.27 194.00 L 83.84 194.00 C 83.26 187.27 86.62 181.55 89.97 176.07 C 92.64 169.51 94.61 162.45 100.26 157.64 Z" />
<path fill="#737373" d=" M 105.03 158.01 C 105.65 160.52 108.00 160.72 110.17 161.02 C 109.90 161.46 109.37 162.33 109.10 162.77 C 106.54 161.46 105.45 164.67 103.90 166.07 C 104.20 163.38 104.79 160.72 105.03 158.01 Z" />
<path fill="#dedede" d=" M 139.83 158.73 C 141.30 159.09 142.82 159.29 144.24 159.83 C 148.70 170.74 154.22 181.13 157.87 192.31 C 154.20 191.45 155.12 184.93 151.26 185.02 C 150.85 187.74 151.54 191.36 148.37 192.32 C 145.56 183.84 142.98 175.37 139.89 167.03 C 139.86 164.26 139.84 161.49 139.83 158.73 Z" />
<path fill="#5b5b5b" d=" M 204.88 159.10 C 208.57 159.76 212.30 160.01 216.05 160.13 C 216.33 160.25 216.89 160.49 217.17 160.61 C 211.43 161.92 216.09 162.83 212.88 165.47 C 211.25 164.62 209.64 163.76 208.05 162.85 C 207.00 161.59 205.95 160.33 204.88 159.10 Z" />
<path fill="#414141" d=" M 21.75 167.96 C 25.49 173.51 27.96 160.36 31.84 160.20 C 33.44 160.99 32.15 162.64 31.98 163.89 C 30.86 165.20 29.73 166.50 28.75 167.92 C 25.68 172.79 27.52 183.55 35.24 181.29 C 32.30 182.07 29.24 182.57 26.20 182.50 C 19.30 182.33 18.64 172.62 21.75 167.96 Z" />
<path fill="#393939" d=" M 212.88 165.47 C 216.09 162.83 211.43 161.92 217.17 160.61 C 217.58 160.77 218.40 161.09 218.81 161.25 C 221.31 163.15 231.08 169.08 225.88 163.01 C 227.88 162.55 231.26 166.34 231.45 162.88 C 231.56 165.51 234.51 172.12 229.99 171.04 C 223.75 171.38 218.10 168.49 212.88 165.47 Z" />
<path fill="#e5e5e5" d=" M 109.10 162.77 C 119.16 162.54 119.93 175.49 117.57 182.57 C 117.34 187.44 111.76 188.52 109.23 192.00 C 108.55 189.36 108.12 186.62 107.05 184.09 C 103.30 188.22 101.80 182.05 101.71 178.81 C 102.46 172.69 104.19 166.83 109.10 162.77 Z" />
<path fill="#c1c1c1" d=" M 199.98 162.92 C 206.45 165.05 209.60 172.01 212.16 177.74 C 208.59 182.37 210.23 187.15 212.05 192.06 C 208.22 188.79 204.67 185.06 200.10 182.80 C 200.99 184.96 202.06 187.06 202.92 189.24 C 199.07 188.96 196.83 184.82 192.90 184.90 C 191.64 188.73 201.44 190.76 195.97 192.23 C 192.80 190.51 189.79 188.52 186.71 186.67 C 185.31 185.53 183.94 184.35 182.64 183.09 C 183.05 181.52 183.27 179.77 184.43 178.54 C 189.98 177.21 183.37 172.37 181.92 169.83 C 189.39 172.72 196.49 177.08 202.87 182.10 C 202.84 180.21 201.11 177.54 203.37 176.39 C 207.43 172.01 202.11 166.93 199.98 162.92 Z" />
<path fill="#b5b5b5" d=" M 28.75 167.92 C 29.73 166.50 30.86 165.20 31.98 163.89 L 32.81 163.73 C 33.93 166.66 34.52 171.04 38.14 171.80 C 44.48 168.93 42.53 172.85 42.36 175.16 C 46.49 174.96 49.09 169.55 53.19 170.93 C 52.45 171.92 51.72 172.91 50.99 173.90 C 49.44 174.71 47.86 175.47 46.25 176.16 C 41.03 174.54 33.98 182.17 31.41 175.55 C 29.32 173.54 28.93 170.74 28.75 167.92 Z" />
<path fill="#a6a6a6" d=" M 135.28 186.80 C 134.42 179.42 131.60 171.98 133.95 164.53 C 136.00 165.18 138.02 165.97 139.89 167.03 C 142.98 175.37 145.56 183.84 148.37 192.32 C 147.94 192.74 147.07 193.58 146.64 194.00 L 144.15 194.00 C 145.35 190.02 145.55 184.17 141.88 181.46 C 138.03 181.64 136.03 200.00 135.28 186.80 Z" />
<path fill="#828282" d=" M 35.24 181.29 C 27.52 183.55 25.68 172.79 28.75 167.92 C 28.93 170.74 29.32 173.54 31.41 175.55 C 33.98 182.17 41.03 174.54 46.25 176.16 C 45.38 176.70 44.51 177.24 43.64 177.78 C 42.74 178.26 41.85 178.74 40.95 179.21 C 38.76 178.43 36.04 178.78 35.24 181.29 Z" />
<path fill="#898989" d=" M 53.19 170.93 C 56.31 168.11 58.09 167.50 55.24 171.74 C 54.25 172.86 53.25 173.98 52.23 175.08 C 51.92 174.79 51.30 174.20 50.99 173.90 C 51.72 172.91 52.45 171.92 53.19 170.93 Z" />
<path fill="#b5b5b5" d=" M 67.11 176.05 C 71.26 172.92 74.37 166.65 80.38 168.18 L 80.03 168.96 C 76.40 172.32 72.70 175.65 68.45 178.21 C 68.58 176.97 68.93 175.49 67.11 176.05 Z" />
<path fill="#858585" d=" M 68.45 178.21 C 72.70 175.65 76.40 172.32 80.03 168.96 C 77.75 174.54 72.65 178.36 68.26 182.18 C 61.34 182.87 59.66 191.39 53.35 193.01 C 53.76 188.34 49.88 191.86 47.41 192.22 C 49.37 188.08 44.22 188.06 44.98 183.95 C 46.63 181.97 48.20 179.93 49.83 177.94 C 50.15 179.57 50.43 181.23 50.96 182.83 C 52.21 182.55 53.77 180.31 54.72 182.03 C 53.84 183.80 51.84 186.49 55.00 187.12 C 59.21 183.62 63.22 179.88 67.11 176.05 C 68.93 175.49 68.58 176.97 68.45 178.21 Z" />
<path fill="#b5b5b5" d=" M 57.34 176.79 C 60.62 174.48 63.63 171.75 67.25 169.95 C 65.30 172.01 61.39 177.03 67.11 176.05 C 63.22 179.88 59.21 183.62 55.00 187.12 C 51.84 186.49 53.84 183.80 54.72 182.03 C 53.77 180.31 52.21 182.55 50.96 182.83 C 50.43 181.23 50.15 179.57 49.83 177.94 C 50.60 176.96 51.42 176.02 52.23 175.08 C 53.25 173.98 54.25 172.86 55.24 171.74 C 56.00 173.39 56.67 175.09 57.34 176.79 Z" />
<path fill="#dfdfdf" d=" M 160.91 171.92 C 167.18 174.97 171.19 182.69 173.90 189.19 C 173.99 190.79 174.02 192.39 174.07 194.00 L 168.29 194.00 C 167.27 186.20 162.90 179.39 160.91 171.92 Z" />
<path fill="#6a6a6a" d=" M 173.08 180.12 C 173.40 176.69 169.08 174.88 169.76 171.52 C 173.29 174.75 176.84 177.94 180.41 181.12 C 178.85 182.36 177.36 180.75 175.92 180.14 C 177.04 184.67 179.14 189.25 178.04 194.00 L 174.07 194.00 C 174.02 192.39 173.99 190.79 173.90 189.19 C 173.72 186.15 173.63 183.11 173.08 180.12 Z" />
<path fill="#0e0e0e" d=" M 77.92 174.92 C 78.73 173.36 80.40 173.24 81.96 173.21 C 81.37 178.20 78.89 182.60 76.90 187.13 C 78.92 185.89 80.57 184.12 81.40 181.88 C 85.48 186.09 77.46 190.21 75.41 194.00 L 56.48 194.00 C 64.47 188.67 72.01 182.57 77.92 174.92 Z" />
<path fill="#242424" d=" M 46.25 176.16 C 47.86 175.47 49.44 174.71 50.99 173.90 C 51.30 174.20 51.92 174.79 52.23 175.08 C 51.42 176.02 50.60 176.96 49.83 177.94 C 48.20 179.93 46.63 181.97 44.98 183.95 C 44.11 181.99 43.29 179.98 43.64 177.78 C 44.51 177.24 45.38 176.70 46.25 176.16 Z" />
<path fill="#a7a7a7" d=" M 212.16 177.74 C 212.62 179.08 213.54 181.74 214.00 183.08 C 214.66 186.67 215.13 190.33 215.05 194.00 L 199.39 194.00 C 198.24 193.42 197.09 192.85 195.97 192.23 C 201.44 190.76 191.64 188.73 192.90 184.90 C 196.83 184.82 199.07 188.96 202.92 189.24 C 202.06 187.06 200.99 184.96 200.10 182.80 C 204.67 185.06 208.22 188.79 212.05 192.06 C 210.23 187.15 208.59 182.37 212.16 177.74 Z" />
<path fill="#434343" d=" M 35.24 181.29 C 36.04 178.78 38.76 178.43 40.95 179.21 C 39.24 180.36 37.30 181.13 35.24 181.29 Z" />
<path fill="#5f5f5f" d=" M 216.30 178.68 C 217.82 181.71 220.11 184.72 218.82 188.41 C 215.64 188.63 215.91 191.56 215.89 194.00 L 215.05 194.00 C 215.13 190.33 214.66 186.67 214.00 183.08 C 214.72 181.59 215.52 180.14 216.30 178.68 Z" />
<path fill="#8e8e8e" d=" M 175.92 180.14 C 177.36 180.75 178.85 182.36 180.41 181.12 C 181.17 181.76 181.91 182.42 182.64 183.09 C 183.94 184.35 185.31 185.53 186.71 186.67 C 185.99 189.22 187.44 191.62 188.18 194.00 L 178.04 194.00 C 179.14 189.25 177.04 184.67 175.92 180.14 Z" />
<path fill="#bababa" d=" M 135.28 186.80 C 136.03 200.00 138.03 181.64 141.88 181.46 C 145.55 184.17 145.35 190.02 144.15 194.00 L 134.15 194.00 C 134.57 191.60 134.94 189.20 135.28 186.80 Z" />
<path fill="#373737" d=" M 188.18 194.00 C 187.44 191.62 185.99 189.22 186.71 186.67 C 189.79 188.52 192.80 190.51 195.97 192.23 C 197.09 192.85 198.24 193.42 199.39 194.00 L 188.18 194.00 Z" />
<path fill="#414141" d=" M 128.27 194.00 C 126.41 188.61 130.57 188.59 128.76 194.00 L 128.27 194.00 Z" />
</svg>
